%TF.GenerationSoftware,KiCad,Pcbnew,9.0.6*%
%TF.CreationDate,2026-05-02T18:07:55-05:00*%
%TF.ProjectId,Micromouse,4d696372-6f6d-46f7-9573-652e6b696361,rev?*%
%TF.SameCoordinates,Original*%
%TF.FileFunction,Soldermask,Top*%
%TF.FilePolarity,Negative*%
%FSLAX46Y46*%
G04 Gerber Fmt 4.6, Leading zero omitted, Abs format (unit mm)*
G04 Created by KiCad (PCBNEW 9.0.6) date 2026-05-02 18:07:55*
%MOMM*%
%LPD*%
G01*
G04 APERTURE LIST*
G04 Aperture macros list*
%AMRoundRect*
0 Rectangle with rounded corners*
0 $1 Rounding radius*
0 $2 $3 $4 $5 $6 $7 $8 $9 X,Y pos of 4 corners*
0 Add a 4 corners polygon primitive as box body*
4,1,4,$2,$3,$4,$5,$6,$7,$8,$9,$2,$3,0*
0 Add four circle primitives for the rounded corners*
1,1,$1+$1,$2,$3*
1,1,$1+$1,$4,$5*
1,1,$1+$1,$6,$7*
1,1,$1+$1,$8,$9*
0 Add four rect primitives between the rounded corners*
20,1,$1+$1,$2,$3,$4,$5,0*
20,1,$1+$1,$4,$5,$6,$7,0*
20,1,$1+$1,$6,$7,$8,$9,0*
20,1,$1+$1,$8,$9,$2,$3,0*%
%AMRotRect*
0 Rectangle, with rotation*
0 The origin of the aperture is its center*
0 $1 length*
0 $2 width*
0 $3 Rotation angle, in degrees counterclockwise*
0 Add horizontal line*
21,1,$1,$2,0,0,$3*%
%AMFreePoly0*
4,1,23,0.500000,-0.750000,0.000000,-0.750000,0.000000,-0.745722,-0.065263,-0.745722,-0.191342,-0.711940,-0.304381,-0.646677,-0.396677,-0.554381,-0.461940,-0.441342,-0.495722,-0.315263,-0.495722,-0.250000,-0.500000,-0.250000,-0.500000,0.250000,-0.495722,0.250000,-0.495722,0.315263,-0.461940,0.441342,-0.396677,0.554381,-0.304381,0.646677,-0.191342,0.711940,-0.065263,0.745722,0.000000,0.745722,
0.000000,0.750000,0.500000,0.750000,0.500000,-0.750000,0.500000,-0.750000,$1*%
%AMFreePoly1*
4,1,23,0.000000,0.745722,0.065263,0.745722,0.191342,0.711940,0.304381,0.646677,0.396677,0.554381,0.461940,0.441342,0.495722,0.315263,0.495722,0.250000,0.500000,0.250000,0.500000,-0.250000,0.495722,-0.250000,0.495722,-0.315263,0.461940,-0.441342,0.396677,-0.554381,0.304381,-0.646677,0.191342,-0.711940,0.065263,-0.745722,0.000000,-0.745722,0.000000,-0.750000,-0.500000,-0.750000,
-0.500000,0.750000,0.000000,0.750000,0.000000,0.745722,0.000000,0.745722,$1*%
G04 Aperture macros list end*
%ADD10R,1.850000X3.600000*%
%ADD11R,1.500000X2.500000*%
%ADD12RoundRect,0.150000X0.150000X-0.587500X0.150000X0.587500X-0.150000X0.587500X-0.150000X-0.587500X0*%
%ADD13RoundRect,0.155000X0.155000X-0.212500X0.155000X0.212500X-0.155000X0.212500X-0.155000X-0.212500X0*%
%ADD14RoundRect,0.160000X0.160000X-0.197500X0.160000X0.197500X-0.160000X0.197500X-0.160000X-0.197500X0*%
%ADD15R,0.650000X1.525000*%
%ADD16R,0.350000X0.550000*%
%ADD17R,0.400000X0.350000*%
%ADD18R,2.450000X1.930000*%
%ADD19FreePoly0,270.000000*%
%ADD20FreePoly1,270.000000*%
%ADD21RoundRect,0.250000X-0.250000X-0.475000X0.250000X-0.475000X0.250000X0.475000X-0.250000X0.475000X0*%
%ADD22RoundRect,0.102000X-0.365000X0.605000X-0.365000X-0.605000X0.365000X-0.605000X0.365000X0.605000X0*%
%ADD23RoundRect,0.160000X0.197500X0.160000X-0.197500X0.160000X-0.197500X-0.160000X0.197500X-0.160000X0*%
%ADD24RoundRect,0.099250X-0.672750X-0.297750X0.672750X-0.297750X0.672750X0.297750X-0.672750X0.297750X0*%
%ADD25R,1.200000X0.200000*%
%ADD26R,1.300000X0.200000*%
%ADD27R,0.250000X0.800000*%
%ADD28RoundRect,0.160000X-0.197500X-0.160000X0.197500X-0.160000X0.197500X0.160000X-0.197500X0.160000X0*%
%ADD29RoundRect,0.155000X0.212500X0.155000X-0.212500X0.155000X-0.212500X-0.155000X0.212500X-0.155000X0*%
%ADD30RoundRect,0.155000X-0.212500X-0.155000X0.212500X-0.155000X0.212500X0.155000X-0.212500X0.155000X0*%
%ADD31RoundRect,0.102000X-0.400000X-0.850000X0.400000X-0.850000X0.400000X0.850000X-0.400000X0.850000X0*%
%ADD32C,0.900000*%
%ADD33RoundRect,0.102000X-0.350000X-0.750000X0.350000X-0.750000X0.350000X0.750000X-0.350000X0.750000X0*%
%ADD34RoundRect,0.102000X-0.500000X-0.400000X0.500000X-0.400000X0.500000X0.400000X-0.500000X0.400000X0*%
%ADD35RoundRect,0.160000X-0.160000X0.197500X-0.160000X-0.197500X0.160000X-0.197500X0.160000X0.197500X0*%
%ADD36RoundRect,0.243750X0.243750X0.456250X-0.243750X0.456250X-0.243750X-0.456250X0.243750X-0.456250X0*%
%ADD37RoundRect,0.155000X-0.155000X0.212500X-0.155000X-0.212500X0.155000X-0.212500X0.155000X0.212500X0*%
%ADD38RotRect,1.000000X1.500000X218.000000*%
%ADD39RoundRect,0.250000X0.401379X0.948101X-1.017040X-0.160090X-0.401379X-0.948101X1.017040X0.160090X0*%
%ADD40C,0.700000*%
%ADD41RoundRect,0.075000X-0.700000X-0.075000X0.700000X-0.075000X0.700000X0.075000X-0.700000X0.075000X0*%
%ADD42RoundRect,0.075000X-0.075000X-0.700000X0.075000X-0.700000X0.075000X0.700000X-0.075000X0.700000X0*%
%ADD43RoundRect,0.243750X-0.243750X-0.456250X0.243750X-0.456250X0.243750X0.456250X-0.243750X0.456250X0*%
%ADD44RoundRect,0.102000X-0.300000X-0.775000X0.300000X-0.775000X0.300000X0.775000X-0.300000X0.775000X0*%
%ADD45RoundRect,0.102000X-0.600000X-0.900000X0.600000X-0.900000X0.600000X0.900000X-0.600000X0.900000X0*%
%ADD46RotRect,1.000000X1.500000X263.000000*%
%ADD47RoundRect,0.250000X-0.386591X0.954226X-0.605955X-0.832357X0.386591X-0.954226X0.605955X0.832357X0*%
%ADD48RoundRect,0.160000X-0.222500X-0.160000X0.222500X-0.160000X0.222500X0.160000X-0.222500X0.160000X0*%
%ADD49RoundRect,0.100500X-0.336500X0.301500X-0.336500X-0.301500X0.336500X-0.301500X0.336500X0.301500X0*%
%ADD50R,1.000000X2.510000*%
%ADD51RotRect,1.000000X1.500000X277.000000*%
%ADD52RoundRect,0.250000X-0.605955X0.832357X-0.386591X-0.954226X0.605955X-0.832357X0.386591X0.954226X0*%
%ADD53RotRect,1.000000X1.500000X322.000000*%
%ADD54RoundRect,0.250000X-1.017040X0.160090X0.401379X-0.948101X1.017040X-0.160090X-0.401379X0.948101X0*%
%ADD55C,0.600000*%
%ADD56RoundRect,0.275000X-0.325000X-0.275000X0.325000X-0.275000X0.325000X0.275000X-0.325000X0.275000X0*%
%ADD57R,0.929199X1.100000*%
%ADD58RoundRect,0.102000X0.365000X-0.605000X0.365000X0.605000X-0.365000X0.605000X-0.365000X-0.605000X0*%
%ADD59RoundRect,0.100000X-0.130000X-0.100000X0.130000X-0.100000X0.130000X0.100000X-0.130000X0.100000X0*%
%ADD60R,2.000000X1.200000*%
%ADD61RoundRect,0.275000X0.325000X0.275000X-0.325000X0.275000X-0.325000X-0.275000X0.325000X-0.275000X0*%
%ADD62RoundRect,0.250000X-0.362500X-1.425000X0.362500X-1.425000X0.362500X1.425000X-0.362500X1.425000X0*%
%ADD63RoundRect,0.250000X0.362500X1.425000X-0.362500X1.425000X-0.362500X-1.425000X0.362500X-1.425000X0*%
%ADD64RoundRect,0.102000X-0.300000X0.600000X-0.300000X-0.600000X0.300000X-0.600000X0.300000X0.600000X0*%
%ADD65RoundRect,0.250000X0.262500X0.450000X-0.262500X0.450000X-0.262500X-0.450000X0.262500X-0.450000X0*%
%ADD66RoundRect,0.102000X-0.650000X-0.650000X0.650000X-0.650000X0.650000X0.650000X-0.650000X0.650000X0*%
%ADD67RoundRect,0.150000X-0.587500X-0.150000X0.587500X-0.150000X0.587500X0.150000X-0.587500X0.150000X0*%
%ADD68RoundRect,0.102000X0.400000X0.850000X-0.400000X0.850000X-0.400000X-0.850000X0.400000X-0.850000X0*%
%ADD69RoundRect,0.102000X0.600000X-0.700000X0.600000X0.700000X-0.600000X0.700000X-0.600000X-0.700000X0*%
%ADD70RoundRect,0.102000X0.300000X0.775000X-0.300000X0.775000X-0.300000X-0.775000X0.300000X-0.775000X0*%
%ADD71RoundRect,0.102000X0.600000X0.900000X-0.600000X0.900000X-0.600000X-0.900000X0.600000X-0.900000X0*%
%ADD72RoundRect,0.102000X-0.525000X-0.300000X0.525000X-0.300000X0.525000X0.300000X-0.525000X0.300000X0*%
%ADD73RoundRect,0.100000X0.100000X-0.130000X0.100000X0.130000X-0.100000X0.130000X-0.100000X-0.130000X0*%
%ADD74RoundRect,0.102000X0.850000X-0.400000X0.850000X0.400000X-0.850000X0.400000X-0.850000X-0.400000X0*%
G04 APERTURE END LIST*
%TO.C,JP1*%
G36*
X161657500Y-131921243D02*
G01*
X160157500Y-131921243D01*
X160157500Y-132221243D01*
X161657500Y-132221243D01*
X161657500Y-131921243D01*
G37*
%TD*%
D10*
%TO.C,C51*%
X135027500Y-97298322D03*
X135027500Y-102598322D03*
%TD*%
D11*
%TO.C,L1*%
X140387500Y-126168322D03*
X144087500Y-126168322D03*
%TD*%
D10*
%TO.C,C54*%
X158807500Y-96768322D03*
X158807500Y-102068322D03*
%TD*%
D12*
%TO.C,Q1*%
X118387500Y-140777901D03*
X120287500Y-140777901D03*
X119337500Y-138902901D03*
%TD*%
D13*
%TO.C,C8*%
X127327500Y-140815822D03*
X127327500Y-139680822D03*
%TD*%
%TO.C,C6*%
X125167500Y-140815822D03*
X125167500Y-139680822D03*
%TD*%
D14*
%TO.C,R25*%
X129477500Y-121145822D03*
X129477500Y-119950822D03*
%TD*%
D15*
%TO.C,U10*%
X153592500Y-115116322D03*
X152322500Y-115116322D03*
X151052500Y-115116322D03*
X149782500Y-115116322D03*
X149782500Y-120540322D03*
X151052500Y-120540322D03*
X152322500Y-120540322D03*
X153592500Y-120540322D03*
%TD*%
D16*
%TO.C,Q3*%
X155932500Y-133496243D03*
X156582500Y-133496243D03*
X157232500Y-133496243D03*
X157882500Y-133496243D03*
D17*
X157882500Y-130546243D03*
X157232500Y-130546243D03*
X156582500Y-130546243D03*
X155932500Y-130546243D03*
D18*
X156907500Y-131686243D03*
%TD*%
D19*
%TO.C,JP1*%
X160907500Y-131421243D03*
D20*
X160907500Y-132721243D03*
%TD*%
D21*
%TO.C,C39*%
X146757500Y-127488322D03*
X148657500Y-127488322D03*
%TD*%
D22*
%TO.C,D10*%
X140387500Y-133976243D03*
X140387500Y-130616243D03*
%TD*%
D23*
%TO.C,R30*%
X179795000Y-139368322D03*
X178600000Y-139368322D03*
%TD*%
D14*
%TO.C,R24*%
X127407500Y-121145822D03*
X127407500Y-119950822D03*
%TD*%
D24*
%TO.C,U2*%
X146077500Y-132568322D03*
X146077500Y-133518322D03*
X146077500Y-134468322D03*
X148457500Y-134468322D03*
X148457500Y-133518322D03*
X148457500Y-132568322D03*
%TD*%
D25*
%TO.C,U9*%
X150716378Y-110828322D03*
D26*
X150766378Y-111328322D03*
X150766378Y-111828322D03*
D27*
X150916378Y-112728322D03*
X151416378Y-112728322D03*
X151916378Y-112728322D03*
X152416378Y-112728322D03*
D26*
X152566378Y-111828322D03*
X152566378Y-111328322D03*
X152566378Y-110828322D03*
D27*
X152416378Y-109928322D03*
X151916378Y-109928322D03*
X151416378Y-109928322D03*
X150916378Y-109928322D03*
%TD*%
D28*
%TO.C,R8*%
X153530000Y-135878322D03*
X154725000Y-135878322D03*
%TD*%
D14*
%TO.C,R14*%
X164987500Y-121145822D03*
X164987500Y-119950822D03*
%TD*%
%TO.C,R17*%
X168527500Y-136625822D03*
X168527500Y-135430822D03*
%TD*%
D29*
%TO.C,C12*%
X114745000Y-134038322D03*
X113610000Y-134038322D03*
%TD*%
D30*
%TO.C,C36*%
X161465000Y-123638322D03*
X162600000Y-123638322D03*
%TD*%
D29*
%TO.C,C10*%
X137605000Y-122598322D03*
X136470000Y-122598322D03*
%TD*%
D31*
%TO.C,S5*%
X173807500Y-139378322D03*
X177207500Y-139378322D03*
%TD*%
D32*
%TO.C,S1*%
X154687500Y-140340401D03*
X157687500Y-140340401D03*
D33*
X153937500Y-138590401D03*
X156937500Y-138590401D03*
X158437500Y-138590401D03*
D34*
X152537500Y-139340401D03*
X152537500Y-141340401D03*
X159837500Y-141340401D03*
X159837500Y-139340401D03*
%TD*%
D35*
%TO.C,R37*%
X155467500Y-111080822D03*
X155467500Y-112275822D03*
%TD*%
D28*
%TO.C,R29*%
X165770000Y-139368322D03*
X166965000Y-139368322D03*
%TD*%
D14*
%TO.C,R35*%
X137187500Y-110855822D03*
X137187500Y-109660822D03*
%TD*%
D29*
%TO.C,C37*%
X136505000Y-141008322D03*
X135370000Y-141008322D03*
%TD*%
D36*
%TO.C,D5*%
X153125000Y-64528322D03*
X151250000Y-64528322D03*
%TD*%
D29*
%TO.C,C30*%
X136255000Y-128480401D03*
X135120000Y-128480401D03*
%TD*%
D13*
%TO.C,C2*%
X124087500Y-140815822D03*
X124087500Y-139680822D03*
%TD*%
D14*
%TO.C,R18*%
X144387500Y-134705822D03*
X144387500Y-133510822D03*
%TD*%
D23*
%TO.C,R20*%
X151622500Y-60522480D03*
X150427500Y-60522480D03*
%TD*%
D29*
%TO.C,C21*%
X136755000Y-126290401D03*
X135620000Y-126290401D03*
%TD*%
D30*
%TO.C,C4*%
X131980000Y-128218322D03*
X133115000Y-128218322D03*
%TD*%
D29*
%TO.C,C20*%
X165155000Y-125278322D03*
X164020000Y-125278322D03*
%TD*%
%TO.C,C29*%
X165155000Y-127778322D03*
X164020000Y-127778322D03*
%TD*%
D37*
%TO.C,C50*%
X144287500Y-107220822D03*
X144287500Y-108355822D03*
%TD*%
D22*
%TO.C,D12*%
X162267500Y-129028322D03*
X162267500Y-125668322D03*
%TD*%
D29*
%TO.C,C26*%
X174165000Y-131138322D03*
X173030000Y-131138322D03*
%TD*%
%TO.C,C34*%
X137525000Y-124120401D03*
X136390000Y-124120401D03*
%TD*%
D38*
%TO.C,J4*%
X130482707Y-65421892D03*
X132074486Y-64178257D03*
D39*
X129970438Y-65821992D03*
D40*
X133067320Y-63402443D03*
X129497630Y-66191389D03*
X130443243Y-65452595D03*
X132121706Y-64141236D03*
D39*
X132586632Y-63777996D03*
D38*
X129302668Y-63911512D03*
X130894449Y-62667875D03*
D39*
X131406594Y-62267617D03*
X128790398Y-64311612D03*
D40*
X129252986Y-63929135D03*
X131877063Y-61878982D03*
X128307372Y-64667928D03*
X130931448Y-62617775D03*
D38*
X128122630Y-62401131D03*
X129714409Y-61157495D03*
D39*
X127610361Y-62801232D03*
X130226557Y-60757236D03*
D40*
X127117114Y-63144467D03*
X128062727Y-62405673D03*
X129741190Y-61094314D03*
X130686802Y-60355520D03*
D38*
X126942591Y-60890752D03*
X128534374Y-59647113D03*
D39*
X126430324Y-61290852D03*
X129046518Y-59246856D03*
D40*
X129496545Y-58832060D03*
X125926856Y-61621006D03*
X126872470Y-60882211D03*
X128550932Y-59570853D03*
%TD*%
D29*
%TO.C,C16*%
X165155000Y-126528322D03*
X164020000Y-126528322D03*
%TD*%
%TO.C,C40*%
X165155000Y-132778322D03*
X164020000Y-132778322D03*
%TD*%
D21*
%TO.C,C13*%
X168727500Y-129258322D03*
X170627500Y-129258322D03*
%TD*%
D41*
%TO.C,U1*%
X118662500Y-127715401D03*
X118662500Y-128215401D03*
X118662500Y-128715401D03*
X118662500Y-129215401D03*
X118662500Y-129715401D03*
X118662500Y-130215401D03*
X118662500Y-130715401D03*
X118662500Y-131215401D03*
X118662500Y-131715401D03*
X118662500Y-132215401D03*
X118662500Y-132715401D03*
X118662500Y-133215401D03*
X118662500Y-133715401D03*
X118662500Y-134215401D03*
X118662500Y-134715401D03*
X118662500Y-135215401D03*
D42*
X120587500Y-137140401D03*
X121087500Y-137140401D03*
X121587500Y-137140401D03*
X122087500Y-137140401D03*
X122587500Y-137140401D03*
X123087500Y-137140401D03*
X123587500Y-137140401D03*
X124087500Y-137140401D03*
X124587500Y-137140401D03*
X125087500Y-137140401D03*
X125587500Y-137140401D03*
X126087500Y-137140401D03*
X126587500Y-137140401D03*
X127087500Y-137140401D03*
X127587500Y-137140401D03*
X128087500Y-137140401D03*
D41*
X130012500Y-135215401D03*
X130012500Y-134715401D03*
X130012500Y-134215401D03*
X130012500Y-133715401D03*
X130012500Y-133215401D03*
X130012500Y-132715401D03*
X130012500Y-132215401D03*
X130012500Y-131715401D03*
X130012500Y-131215401D03*
X130012500Y-130715401D03*
X130012500Y-130215401D03*
X130012500Y-129715401D03*
X130012500Y-129215401D03*
X130012500Y-128715401D03*
X130012500Y-128215401D03*
X130012500Y-127715401D03*
D42*
X128087500Y-125790401D03*
X127587500Y-125790401D03*
X127087500Y-125790401D03*
X126587500Y-125790401D03*
X126087500Y-125790401D03*
X125587500Y-125790401D03*
X125087500Y-125790401D03*
X124587500Y-125790401D03*
X124087500Y-125790401D03*
X123587500Y-125790401D03*
X123087500Y-125790401D03*
X122587500Y-125790401D03*
X122087500Y-125790401D03*
X121587500Y-125790401D03*
X121087500Y-125790401D03*
X120587500Y-125790401D03*
%TD*%
D15*
%TO.C,U8*%
X142592500Y-115116322D03*
X141322500Y-115116322D03*
X140052500Y-115116322D03*
X138782500Y-115116322D03*
X138782500Y-120540322D03*
X140052500Y-120540322D03*
X141322500Y-120540322D03*
X142592500Y-120540322D03*
%TD*%
D13*
%TO.C,C15*%
X121957500Y-140807901D03*
X121957500Y-139672901D03*
%TD*%
D29*
%TO.C,C24*%
X165155000Y-129028322D03*
X164020000Y-129028322D03*
%TD*%
D43*
%TO.C,D14*%
X128750000Y-69028322D03*
X130625000Y-69028322D03*
%TD*%
D13*
%TO.C,C5*%
X123017500Y-140815822D03*
X123017500Y-139680822D03*
%TD*%
D29*
%TO.C,C17*%
X135755000Y-130718322D03*
X134620000Y-130718322D03*
%TD*%
%TO.C,C9*%
X165155000Y-130278322D03*
X164020000Y-130278322D03*
%TD*%
D13*
%TO.C,C23*%
X116307500Y-128715822D03*
X116307500Y-127580822D03*
%TD*%
D37*
%TO.C,C52*%
X146667500Y-107230822D03*
X146667500Y-108365822D03*
%TD*%
D14*
%TO.C,R27*%
X133697500Y-121145822D03*
X133697500Y-119950822D03*
%TD*%
D25*
%TO.C,U7*%
X141616378Y-111828322D03*
D26*
X141566378Y-111328322D03*
X141566378Y-110828322D03*
D27*
X141416378Y-109928322D03*
X140916378Y-109928322D03*
X140416378Y-109928322D03*
X139916378Y-109928322D03*
D26*
X139766378Y-110828322D03*
X139766378Y-111328322D03*
X139766378Y-111828322D03*
D27*
X139916378Y-112728322D03*
X140416378Y-112728322D03*
X140916378Y-112728322D03*
X141416378Y-112728322D03*
%TD*%
D28*
%TO.C,R3*%
X143190000Y-131908322D03*
X144385000Y-131908322D03*
%TD*%
D14*
%TO.C,R13*%
X162897500Y-121145822D03*
X162897500Y-119950822D03*
%TD*%
D44*
%TO.C,J13*%
X164907500Y-98143322D03*
X165907500Y-98143322D03*
D45*
X163607500Y-95618322D03*
X167207500Y-95618322D03*
%TD*%
D44*
%TO.C,J12*%
X127927500Y-98673322D03*
X128927500Y-98673322D03*
D45*
X126627500Y-96148322D03*
X130227500Y-96148322D03*
%TD*%
D46*
%TO.C,J7*%
X177333268Y-87217676D03*
X177579444Y-85212733D03*
D47*
X177253954Y-87862818D03*
D40*
X177327075Y-87267290D03*
X177732900Y-83962112D03*
X177180831Y-88458346D03*
X177586656Y-85153167D03*
D47*
X177658559Y-84567565D03*
D46*
X175430858Y-86984089D03*
X175677030Y-84979146D03*
D47*
X175351540Y-87629231D03*
X175756146Y-84333978D03*
D40*
X175814011Y-83726502D03*
X175261942Y-88222736D03*
X175408186Y-87031680D03*
X175667767Y-84917557D03*
D46*
X173528441Y-86750502D03*
X173774617Y-84745559D03*
D47*
X173449127Y-87395644D03*
X173853733Y-84100391D03*
D40*
X173489296Y-86796070D03*
X173895121Y-83490892D03*
X173343052Y-87987126D03*
X173748877Y-84681947D03*
D46*
X171626028Y-86516915D03*
X171872204Y-84511971D03*
D47*
X171546714Y-87162057D03*
X171951320Y-83866804D03*
D40*
X171424163Y-87751516D03*
X171570407Y-86560460D03*
X171829988Y-84446337D03*
X171976232Y-83255282D03*
%TD*%
D14*
%TO.C,R22*%
X143147500Y-134705822D03*
X143147500Y-133510822D03*
%TD*%
D21*
%TO.C,C41*%
X150257500Y-127488322D03*
X152157500Y-127488322D03*
%TD*%
D37*
%TO.C,C3*%
X129557500Y-139680822D03*
X129557500Y-140815822D03*
%TD*%
D29*
%TO.C,C35*%
X174175000Y-129948322D03*
X173040000Y-129948322D03*
%TD*%
D48*
%TO.C,D4*%
X156515000Y-136952085D03*
X157660000Y-136952085D03*
%TD*%
D29*
%TO.C,C14*%
X134745000Y-135148322D03*
X133610000Y-135148322D03*
%TD*%
D23*
%TO.C,R19*%
X151625000Y-62128322D03*
X150430000Y-62128322D03*
%TD*%
D28*
%TO.C,R7*%
X153522500Y-136958322D03*
X154717500Y-136958322D03*
%TD*%
D35*
%TO.C,R6*%
X149447500Y-101850822D03*
X149447500Y-103045822D03*
%TD*%
D49*
%TO.C,FB1*%
X132957500Y-139983322D03*
X132957500Y-140853322D03*
%TD*%
D50*
%TO.C,J9*%
X157737500Y-124663322D03*
X155197500Y-127973322D03*
%TD*%
D14*
%TO.C,R12*%
X160787500Y-121145822D03*
X160787500Y-119950822D03*
%TD*%
D29*
%TO.C,C33*%
X165155000Y-131528322D03*
X164020000Y-131528322D03*
%TD*%
D51*
%TO.C,J8*%
X120699444Y-86522996D03*
X120453268Y-84518053D03*
D40*
X120851681Y-87763691D03*
D52*
X120778560Y-87168163D03*
D40*
X120705438Y-86572635D03*
X120445856Y-84458512D03*
D52*
X120373953Y-83872910D03*
D40*
X120299613Y-83267457D03*
D51*
X118797031Y-86756583D03*
X118550855Y-84751642D03*
D52*
X118876146Y-87401750D03*
X118471540Y-84106497D03*
D40*
X118932792Y-87999301D03*
X118786549Y-86808245D03*
X118526967Y-84694122D03*
X118380724Y-83503067D03*
D51*
X116894617Y-86990170D03*
X116648441Y-84985227D03*
D52*
X116973733Y-87635337D03*
X116569127Y-84340084D03*
D40*
X117013902Y-88234911D03*
X116867659Y-87043855D03*
X116608077Y-84929732D03*
X116461834Y-83738677D03*
D51*
X114992204Y-87223757D03*
X114746028Y-85218813D03*
D52*
X115071320Y-87868924D03*
X114666714Y-84573671D03*
D40*
X115095013Y-88470521D03*
X114948770Y-87279465D03*
X114689188Y-85165342D03*
X114542945Y-83974287D03*
%TD*%
D53*
%TO.C,J5*%
X165401688Y-60930072D03*
X163809907Y-59686437D03*
D40*
X165441027Y-60960934D03*
X163762564Y-59649575D03*
X166386640Y-61699729D03*
D54*
X165913833Y-61330331D03*
D40*
X162816951Y-58910782D03*
D54*
X163297637Y-59286336D03*
D53*
X164221650Y-62440452D03*
X162629868Y-61196817D03*
D54*
X162117599Y-60796716D03*
X164733794Y-62840712D03*
D40*
X164250769Y-62484395D03*
X165196382Y-63223190D03*
X162572306Y-61173037D03*
X161626692Y-60434243D03*
D53*
X163041611Y-63950833D03*
X161449829Y-62707198D03*
D54*
X160937561Y-62307096D03*
X163553756Y-64351093D03*
D40*
X164006123Y-64746651D03*
X163060510Y-64007857D03*
X161382047Y-62696498D03*
X160436434Y-61957704D03*
D53*
X161861573Y-65461213D03*
X160269790Y-64217576D03*
D54*
X162373718Y-65861472D03*
X159757522Y-63817476D03*
D40*
X162815865Y-66270112D03*
X161870251Y-65531317D03*
X160191788Y-64219959D03*
X159246177Y-63481166D03*
%TD*%
D55*
%TO.C,J2*%
X180707500Y-118778322D03*
D56*
X180547500Y-118778322D03*
D55*
X179887500Y-118778322D03*
D57*
X179887500Y-118778322D03*
D55*
X177788100Y-118778322D03*
D57*
X177788100Y-118778322D03*
D56*
X177127500Y-118778322D03*
D55*
X176968100Y-118778322D03*
X180707500Y-120228322D03*
D56*
X180547500Y-120228322D03*
D55*
X179887500Y-120228322D03*
D57*
X179887500Y-120228322D03*
D55*
X177788100Y-120228322D03*
D57*
X177788100Y-120228322D03*
D56*
X177127500Y-120228322D03*
D55*
X176968100Y-120228322D03*
X180707500Y-121678322D03*
D56*
X180547500Y-121678322D03*
D55*
X179887500Y-121678322D03*
D57*
X179887500Y-121678322D03*
D55*
X177788100Y-121678322D03*
D57*
X177788100Y-121678322D03*
D56*
X177127500Y-121678322D03*
D55*
X176968100Y-121678322D03*
X180707500Y-123128322D03*
D56*
X180547500Y-123128322D03*
D55*
X179887500Y-123128322D03*
D57*
X179887500Y-123128322D03*
D55*
X177788100Y-123128322D03*
D57*
X177788100Y-123128322D03*
D56*
X177127500Y-123128322D03*
D55*
X176968100Y-123128322D03*
%TD*%
D43*
%TO.C,D15*%
X132250000Y-67528322D03*
X134125000Y-67528322D03*
%TD*%
D29*
%TO.C,C32*%
X174155000Y-127468322D03*
X173020000Y-127468322D03*
%TD*%
D58*
%TO.C,D2*%
X151277500Y-100374980D03*
X151277500Y-103734980D03*
%TD*%
D44*
%TO.C,J6*%
X143687500Y-136940401D03*
X144687500Y-136940401D03*
X145687500Y-136940401D03*
X146687500Y-136940401D03*
X147687500Y-136940401D03*
X148687500Y-136940401D03*
D45*
X142387500Y-140815401D03*
X149987500Y-140815401D03*
%TD*%
D13*
%TO.C,C1*%
X126247500Y-140815822D03*
X126247500Y-139680822D03*
%TD*%
D43*
%TO.C,D16*%
X135750000Y-66028322D03*
X137625000Y-66028322D03*
%TD*%
D59*
%TO.C,C27*%
X130607500Y-138578322D03*
X131247500Y-138578322D03*
%TD*%
D43*
%TO.C,D13*%
X125250000Y-70528322D03*
X127125000Y-70528322D03*
%TD*%
D23*
%TO.C,R16*%
X163555000Y-137868322D03*
X162360000Y-137868322D03*
%TD*%
D60*
%TO.C,LS1*%
X112437500Y-139990401D03*
X116137500Y-139990401D03*
X112437500Y-136290401D03*
%TD*%
D55*
%TO.C,J1*%
X111667500Y-123118322D03*
D61*
X111827500Y-123118322D03*
D55*
X112487500Y-123118322D03*
D57*
X112487500Y-123118322D03*
D55*
X114586900Y-123118322D03*
D57*
X114586900Y-123118322D03*
D61*
X115247500Y-123118322D03*
D55*
X115406900Y-123118322D03*
X111667500Y-121668322D03*
D61*
X111827500Y-121668322D03*
D55*
X112487500Y-121668322D03*
D57*
X112487500Y-121668322D03*
D55*
X114586900Y-121668322D03*
D57*
X114586900Y-121668322D03*
D61*
X115247500Y-121668322D03*
D55*
X115406900Y-121668322D03*
X111667500Y-120218322D03*
D61*
X111827500Y-120218322D03*
D55*
X112487500Y-120218322D03*
D57*
X112487500Y-120218322D03*
D55*
X114586900Y-120218322D03*
D57*
X114586900Y-120218322D03*
D61*
X115247500Y-120218322D03*
D55*
X115406900Y-120218322D03*
X111667500Y-118768322D03*
D61*
X111827500Y-118768322D03*
D55*
X112487500Y-118768322D03*
D57*
X112487500Y-118768322D03*
D55*
X114586900Y-118768322D03*
D57*
X114586900Y-118768322D03*
D61*
X115247500Y-118768322D03*
D55*
X115406900Y-118768322D03*
%TD*%
D62*
%TO.C,R38*%
X157825000Y-110858322D03*
X163750000Y-110858322D03*
%TD*%
D43*
%TO.C,D17*%
X139250000Y-64528322D03*
X141125000Y-64528322D03*
%TD*%
D36*
%TO.C,D6*%
X156625000Y-66028322D03*
X154750000Y-66028322D03*
%TD*%
D23*
%TO.C,R21*%
X151625000Y-58928322D03*
X150430000Y-58928322D03*
%TD*%
D28*
%TO.C,R9*%
X135312500Y-139878322D03*
X136507500Y-139878322D03*
%TD*%
D29*
%TO.C,C25*%
X135255000Y-132920401D03*
X134120000Y-132920401D03*
%TD*%
D63*
%TO.C,R36*%
X134550000Y-110858322D03*
X128625000Y-110858322D03*
%TD*%
D37*
%TO.C,C53*%
X147887500Y-107230822D03*
X147887500Y-108365822D03*
%TD*%
D36*
%TO.C,D8*%
X163625000Y-69028322D03*
X161750000Y-69028322D03*
%TD*%
D14*
%TO.C,R15*%
X167087500Y-121145822D03*
X167087500Y-119950822D03*
%TD*%
D29*
%TO.C,C18*%
X174155000Y-126248322D03*
X173020000Y-126248322D03*
%TD*%
D35*
%TO.C,R28*%
X175997500Y-134850822D03*
X175997500Y-136045822D03*
%TD*%
D29*
%TO.C,C19*%
X174165000Y-132328322D03*
X173030000Y-132328322D03*
%TD*%
D30*
%TO.C,C42*%
X150240000Y-129496243D03*
X151375000Y-129496243D03*
%TD*%
D64*
%TO.C,U3*%
X152502500Y-131796243D03*
X151552500Y-131796243D03*
X150602500Y-131796243D03*
X150602500Y-134396243D03*
X152502500Y-134396243D03*
%TD*%
D31*
%TO.C,S3*%
X170997500Y-135440401D03*
X174397500Y-135440401D03*
%TD*%
D65*
%TO.C,R10*%
X162545000Y-135296243D03*
X160720000Y-135296243D03*
%TD*%
D66*
%TO.C,D11*%
X143937500Y-58928322D03*
X143937500Y-60528322D03*
X143937500Y-62128322D03*
X148437500Y-62128322D03*
X148437500Y-60528322D03*
X148437500Y-58928322D03*
%TD*%
D21*
%TO.C,C11*%
X168727500Y-126658322D03*
X170627500Y-126658322D03*
%TD*%
D59*
%TO.C,R1*%
X121587500Y-124088322D03*
X122227500Y-124088322D03*
%TD*%
D48*
%TO.C,D3*%
X156510000Y-135652085D03*
X157655000Y-135652085D03*
%TD*%
D37*
%TO.C,C49*%
X145497500Y-107230822D03*
X145497500Y-108365822D03*
%TD*%
D14*
%TO.C,R23*%
X125307500Y-121145822D03*
X125307500Y-119950822D03*
%TD*%
D67*
%TO.C,Q2*%
X145800000Y-101798322D03*
X145800000Y-103698322D03*
X147675000Y-102748322D03*
%TD*%
D68*
%TO.C,S4*%
X171737500Y-139368322D03*
X168337500Y-139368322D03*
%TD*%
D13*
%TO.C,C7*%
X128437500Y-140815822D03*
X128437500Y-139680822D03*
%TD*%
D29*
%TO.C,C22*%
X174155000Y-128678322D03*
X173020000Y-128678322D03*
%TD*%
D69*
%TO.C,Y1*%
X114747500Y-132328322D03*
X114747500Y-130128322D03*
X113047500Y-130128322D03*
X113047500Y-132328322D03*
%TD*%
D59*
%TO.C,R5*%
X117522500Y-138390401D03*
X118162500Y-138390401D03*
%TD*%
D70*
%TO.C,J3*%
X142127500Y-98383322D03*
X141127500Y-98383322D03*
D71*
X143427500Y-100908322D03*
X139827500Y-100908322D03*
%TD*%
D65*
%TO.C,R4*%
X143510000Y-103678322D03*
X141685000Y-103678322D03*
%TD*%
D23*
%TO.C,R2*%
X144385000Y-130678322D03*
X143190000Y-130678322D03*
%TD*%
D36*
%TO.C,D7*%
X160125000Y-67528322D03*
X158250000Y-67528322D03*
%TD*%
D72*
%TO.C,D1*%
X115437500Y-141890401D03*
X112637500Y-141890401D03*
%TD*%
D13*
%TO.C,C31*%
X131477500Y-140855822D03*
X131477500Y-139720822D03*
%TD*%
D36*
%TO.C,D9*%
X167125000Y-70528322D03*
X165250000Y-70528322D03*
%TD*%
D21*
%TO.C,C28*%
X168727500Y-131878322D03*
X170627500Y-131878322D03*
%TD*%
D14*
%TO.C,R26*%
X131587500Y-121145822D03*
X131587500Y-119950822D03*
%TD*%
D73*
%TO.C,C38*%
X146857500Y-130338322D03*
X146857500Y-129698322D03*
%TD*%
D14*
%TO.C,R11*%
X158697500Y-121145822D03*
X158697500Y-119950822D03*
%TD*%
D74*
%TO.C,S2*%
X138687500Y-140740401D03*
X138687500Y-137340401D03*
%TD*%
M02*
