%TF.GenerationSoftware,KiCad,Pcbnew,9.0.6*%
%TF.CreationDate,2026-04-22T14:29:12-05:00*%
%TF.ProjectId,Encoder_Der,456e636f-6465-4725-9f44-65722e6b6963,rev?*%
%TF.SameCoordinates,Original*%
%TF.FileFunction,Copper,L1,Top*%
%TF.FilePolarity,Positive*%
%FSLAX46Y46*%
G04 Gerber Fmt 4.6, Leading zero omitted, Abs format (unit mm)*
G04 Created by KiCad (PCBNEW 9.0.6) date 2026-04-22 14:29:12*
%MOMM*%
%LPD*%
G01*
G04 APERTURE LIST*
G04 Aperture macros list*
%AMRoundRect*
0 Rectangle with rounded corners*
0 $1 Rounding radius*
0 $2 $3 $4 $5 $6 $7 $8 $9 X,Y pos of 4 corners*
0 Add a 4 corners polygon primitive as box body*
4,1,4,$2,$3,$4,$5,$6,$7,$8,$9,$2,$3,0*
0 Add four circle primitives for the rounded corners*
1,1,$1+$1,$2,$3*
1,1,$1+$1,$4,$5*
1,1,$1+$1,$6,$7*
1,1,$1+$1,$8,$9*
0 Add four rect primitives between the rounded corners*
20,1,$1+$1,$2,$3,$4,$5,0*
20,1,$1+$1,$4,$5,$6,$7,0*
20,1,$1+$1,$6,$7,$8,$9,0*
20,1,$1+$1,$8,$9,$2,$3,0*%
G04 Aperture macros list end*
%TA.AperFunction,SMDPad,CuDef*%
%ADD10RoundRect,0.140000X-0.140000X-0.170000X0.140000X-0.170000X0.140000X0.170000X-0.140000X0.170000X0*%
%TD*%
%TA.AperFunction,SMDPad,CuDef*%
%ADD11RoundRect,0.135000X-0.135000X-0.185000X0.135000X-0.185000X0.135000X0.185000X-0.135000X0.185000X0*%
%TD*%
%TA.AperFunction,SMDPad,CuDef*%
%ADD12R,0.410000X1.470000*%
%TD*%
%TA.AperFunction,ComponentPad*%
%ADD13RoundRect,0.275000X0.275000X-0.325000X0.275000X0.325000X-0.275000X0.325000X-0.275000X-0.325000X0*%
%TD*%
%TA.AperFunction,ComponentPad*%
%ADD14RoundRect,0.275000X0.275000X-0.413500X0.275000X0.413500X-0.275000X0.413500X-0.275000X-0.413500X0*%
%TD*%
%TA.AperFunction,ViaPad*%
%ADD15C,0.600000*%
%TD*%
%TA.AperFunction,Conductor*%
%ADD16C,0.200000*%
%TD*%
G04 APERTURE END LIST*
D10*
%TO.P,C46,1*%
%TO.N,/AS5048_Der/+3V0_s*%
X180547500Y-105858322D03*
%TO.P,C46,2*%
%TO.N,/AS5048_Der/GND_s*%
X181507500Y-105858322D03*
%TD*%
D11*
%TO.P,R34,1*%
%TO.N,/AS5048_Der/+3V0_s*%
X176657500Y-105858322D03*
%TO.P,R34,2*%
%TO.N,/AS5048_Der/SDA_s*%
X177677500Y-105858322D03*
%TD*%
D12*
%TO.P,U5,1,SDA*%
%TO.N,/AS5048_Der/SDA_s*%
X177137500Y-103378322D03*
%TO.P,U5,2,SCL*%
%TO.N,/AS5048_Der/SCL_s*%
X177787500Y-103378322D03*
%TO.P,U5,3,A2*%
%TO.N,/AS5048_Der/+3V0_s*%
X178437500Y-103378322D03*
%TO.P,U5,4,A1*%
%TO.N,/AS5048_Der/GND_s*%
X179087500Y-103378322D03*
%TO.P,U5,5,TEST_5*%
X179737500Y-103378322D03*
%TO.P,U5,6,TEST_6*%
X180387500Y-103378322D03*
%TO.P,U5,7,TEST_7*%
%TO.N,unconnected-(U5-TEST_7-Pad7)*%
X181037500Y-103378322D03*
%TO.P,U5,8,TEST_8*%
%TO.N,unconnected-(U5-TEST_8-Pad8)*%
X181037500Y-97638322D03*
%TO.P,U5,9,TEST_9*%
%TO.N,unconnected-(U5-TEST_9-Pad9)*%
X180387500Y-97638322D03*
%TO.P,U5,10,TEST_10*%
%TO.N,unconnected-(U5-TEST_10-Pad10)*%
X179737500Y-97638322D03*
%TO.P,U5,11,VDD5V*%
%TO.N,/AS5048_Der/+3V0_s*%
X179087500Y-97638322D03*
%TO.P,U5,12,VDD3V*%
X178437500Y-97638322D03*
%TO.P,U5,13,GND*%
%TO.N,/AS5048_Der/GND_s*%
X177787500Y-97638322D03*
%TO.P,U5,14,PWM*%
%TO.N,unconnected-(U5-PWM-Pad14)*%
X177137500Y-97638322D03*
%TD*%
D13*
%TO.P,J11,1,Pin_1*%
%TO.N,/AS5048_Der/+3V0_s*%
X176922500Y-107138322D03*
D14*
X176922500Y-107824822D03*
D13*
%TO.P,J11,2,Pin_2*%
%TO.N,/AS5048_Der/SDA_s*%
X178372500Y-107138322D03*
D14*
X178372500Y-107824822D03*
D13*
%TO.P,J11,3,Pin_3*%
%TO.N,/AS5048_Der/SCL_s*%
X179822500Y-107138322D03*
D14*
X179822500Y-107824822D03*
D13*
%TO.P,J11,4,Pin_4*%
%TO.N,/AS5048_Der/GND_s*%
X181272500Y-107138322D03*
D14*
X181272500Y-107824822D03*
%TD*%
D11*
%TO.P,R33,1*%
%TO.N,/AS5048_Der/+3V0_s*%
X178597500Y-105858322D03*
%TO.P,R33,2*%
%TO.N,/AS5048_Der/SCL_s*%
X179617500Y-105858322D03*
%TD*%
D15*
%TO.N,/AS5048_Der/+3V0_s*%
X180797500Y-101998322D03*
X180232469Y-105254142D03*
X179507500Y-98948322D03*
X178597500Y-105148322D03*
%TO.N,/AS5048_Der/GND_s*%
X178137500Y-99018322D03*
X181367500Y-104858322D03*
X179007500Y-102088322D03*
%TD*%
D16*
%TO.N,/AS5048_Der/+3V0_s*%
X179087500Y-97638322D02*
X179087500Y-98528322D01*
X178758557Y-101487322D02*
X179366500Y-101487322D01*
X178406500Y-103347322D02*
X178406500Y-101839379D01*
X178437500Y-97638322D02*
X179087500Y-97638322D01*
X179877500Y-101998322D02*
X180797500Y-101998322D01*
X179552500Y-101673322D02*
X179877500Y-101998322D01*
X178406500Y-101839379D02*
X178758557Y-101487322D01*
X179366500Y-101487322D02*
X179552500Y-101673322D01*
X179087500Y-98528322D02*
X179507500Y-98948322D01*
X178437500Y-103378322D02*
X178406500Y-103347322D01*
%TO.N,/AS5048_Der/GND_s*%
X179087500Y-103378322D02*
X179087500Y-102168322D01*
X179087500Y-102168322D02*
X179007500Y-102088322D01*
X177787500Y-97638322D02*
X177787500Y-98668322D01*
X177787500Y-98668322D02*
X178137500Y-99018322D01*
%TO.N,/AS5048_Der/SCL_s*%
X178022500Y-104548322D02*
X179317500Y-104548322D01*
X177787500Y-104313322D02*
X178022500Y-104548322D01*
X179617500Y-105858322D02*
X179617500Y-106258322D01*
X177787500Y-103378322D02*
X177787500Y-104313322D01*
X179822500Y-106463322D02*
X179822500Y-107138322D01*
X179617500Y-106258322D02*
X179822500Y-106463322D01*
X179617500Y-104848322D02*
X179617500Y-105858322D01*
X179822500Y-107138322D02*
X179822500Y-108063322D01*
X179317500Y-104548322D02*
X179617500Y-104848322D01*
%TO.N,/AS5048_Der/SDA_s*%
X177677500Y-105858322D02*
X177677500Y-106443322D01*
X177677500Y-106443322D02*
X178372500Y-107138322D01*
X177137500Y-103378322D02*
X177137500Y-104548322D01*
X178372500Y-107138322D02*
X178372500Y-106643322D01*
X177137500Y-104548322D02*
X177677500Y-105088322D01*
X177677500Y-105088322D02*
X177677500Y-105858322D01*
%TD*%
%TA.AperFunction,Conductor*%
%TO.N,/AS5048_Der/GND_s*%
G36*
X177889898Y-98570211D02*
G01*
X178292029Y-98763058D01*
X178298007Y-98769726D01*
X178297520Y-98778667D01*
X178296710Y-98780090D01*
X178140204Y-99015257D01*
X178132768Y-99020246D01*
X178132709Y-99020258D01*
X177853604Y-99074827D01*
X177844827Y-99073051D01*
X177840174Y-99066776D01*
X177692141Y-98584190D01*
X177692991Y-98575278D01*
X177699896Y-98569575D01*
X177703327Y-98569061D01*
X177884839Y-98569061D01*
X177889898Y-98570211D01*
G37*
%TD.AperFunction*%
%TD*%
%TA.AperFunction,Conductor*%
%TO.N,/AS5048_Der/+3V0_s*%
G36*
X179189299Y-98528655D02*
G01*
X179556240Y-98650827D01*
X179563007Y-98656692D01*
X179564021Y-98664203D01*
X179508446Y-98944545D01*
X179503475Y-98951994D01*
X179503442Y-98952016D01*
X179269438Y-99107435D01*
X179260651Y-99109158D01*
X179253219Y-99104162D01*
X179252340Y-99102587D01*
X178995151Y-98544654D01*
X178994799Y-98535706D01*
X179000878Y-98529131D01*
X179005776Y-98528056D01*
X179185603Y-98528056D01*
X179189299Y-98528655D01*
G37*
%TD.AperFunction*%
%TD*%
%TA.AperFunction,Conductor*%
%TO.N,/AS5048_Der/GND_s*%
G36*
X179012289Y-102088291D02*
G01*
X179020979Y-102090049D01*
X179290107Y-102144496D01*
X179297536Y-102149496D01*
X179299255Y-102158284D01*
X179299221Y-102158443D01*
X179216781Y-102538623D01*
X179216781Y-102538622D01*
X179187500Y-102673664D01*
X178987500Y-102673664D01*
X178763193Y-102264362D01*
X178762223Y-102255462D01*
X178766925Y-102249033D01*
X179003443Y-102090048D01*
X179012220Y-102088278D01*
X179012289Y-102088291D01*
G37*
%TD.AperFunction*%
%TD*%
%TA.AperFunction,Conductor*%
%TO.N,/AS5048_Der/+3V0_s*%
G36*
X180735155Y-101709114D02*
G01*
X180741196Y-101715724D01*
X180741665Y-101717392D01*
X180798030Y-101996002D01*
X180798030Y-102000642D01*
X180741665Y-102279251D01*
X180736665Y-102286680D01*
X180727877Y-102288399D01*
X180726209Y-102287930D01*
X180210976Y-102101118D01*
X180204366Y-102095077D01*
X180203264Y-102090119D01*
X180203264Y-101906524D01*
X180206691Y-101898251D01*
X180210973Y-101895526D01*
X180726211Y-101708713D01*
X180735155Y-101709114D01*
G37*
%TD.AperFunction*%
%TD*%
%TA.AperFunction,Conductor*%
%TO.N,/AS5048_Der/+3V0_s*%
G36*
X177093057Y-104961142D02*
G01*
X177113699Y-104977776D01*
X177320681Y-105184758D01*
X177335384Y-105211685D01*
X177351977Y-105237504D01*
X177352868Y-105243704D01*
X177354166Y-105246081D01*
X177357000Y-105272439D01*
X177357000Y-105304706D01*
X177337315Y-105371745D01*
X177320681Y-105392387D01*
X177249178Y-105463890D01*
X177249176Y-105463891D01*
X177197067Y-105570479D01*
X177197067Y-105570482D01*
X177187000Y-105639580D01*
X177187000Y-106077064D01*
X177187985Y-106083822D01*
X177197067Y-106146164D01*
X177249176Y-106252752D01*
X177320681Y-106324257D01*
X177354166Y-106385580D01*
X177357000Y-106411938D01*
X177357000Y-106485518D01*
X177378841Y-106567031D01*
X177421036Y-106640114D01*
X177421038Y-106640116D01*
X177487773Y-106706851D01*
X177487779Y-106706856D01*
X177565681Y-106784758D01*
X177599166Y-106846081D01*
X177602000Y-106872439D01*
X177602000Y-108285709D01*
X177602001Y-108285715D01*
X177604673Y-108310569D01*
X177592266Y-108379328D01*
X177544655Y-108430465D01*
X177481383Y-108447822D01*
X176695629Y-108447822D01*
X176679442Y-108446761D01*
X176600297Y-108436340D01*
X176569027Y-108427960D01*
X176502856Y-108400548D01*
X176474820Y-108384360D01*
X176417995Y-108340751D01*
X176395105Y-108317857D01*
X176370446Y-108285715D01*
X176351507Y-108261028D01*
X176335325Y-108232992D01*
X176307920Y-108166810D01*
X176299547Y-108135549D01*
X176289058Y-108055789D01*
X176288001Y-108039642D01*
X176288004Y-108021409D01*
X176288000Y-108021402D01*
X176288000Y-105065457D01*
X176307685Y-104998418D01*
X176360489Y-104952663D01*
X176412000Y-104941457D01*
X177026018Y-104941457D01*
X177093057Y-104961142D01*
G37*
%TD.AperFunction*%
%TA.AperFunction,Conductor*%
G36*
X180287074Y-104963367D02*
G01*
X180330559Y-104975018D01*
X180360467Y-104987405D01*
X180377980Y-104997517D01*
X180399466Y-105009922D01*
X180425146Y-105029628D01*
X180467440Y-105071922D01*
X180480433Y-105083931D01*
X180492249Y-105094023D01*
X180508589Y-105103174D01*
X180557463Y-105153105D01*
X180572000Y-105211363D01*
X180572000Y-105279025D01*
X180578671Y-105333468D01*
X180578674Y-105333485D01*
X180587327Y-105368259D01*
X180587726Y-105369865D01*
X180592499Y-105391450D01*
X180593535Y-105393211D01*
X180594891Y-105398661D01*
X180599533Y-105408977D01*
X180599888Y-105409708D01*
X180624323Y-105446003D01*
X180626431Y-105449134D01*
X180640042Y-105472272D01*
X180641845Y-105474242D01*
X180642766Y-105473398D01*
X180652253Y-105487491D01*
X180652256Y-105487494D01*
X180652257Y-105487495D01*
X180664538Y-105499376D01*
X180669786Y-105504772D01*
X180669790Y-105504777D01*
X180669793Y-105504779D01*
X180676533Y-105512143D01*
X180676536Y-105512146D01*
X180681352Y-105517408D01*
X180736521Y-105561350D01*
X180740555Y-105564075D01*
X180739630Y-105565442D01*
X180783245Y-105610439D01*
X180797500Y-105668162D01*
X180797500Y-106282013D01*
X180796604Y-106285062D01*
X180797348Y-106288152D01*
X180786823Y-106318371D01*
X180777815Y-106349052D01*
X180775101Y-106352031D01*
X180774369Y-106354135D01*
X180757236Y-106371646D01*
X180749964Y-106379631D01*
X180748874Y-106380484D01*
X180643526Y-106459348D01*
X180636910Y-106468184D01*
X180623964Y-106478326D01*
X180606163Y-106485412D01*
X180590823Y-106496894D01*
X180574371Y-106498069D01*
X180559049Y-106504169D01*
X180540243Y-106500506D01*
X180521131Y-106501872D01*
X180506656Y-106493966D01*
X180490468Y-106490814D01*
X180476626Y-106477565D01*
X180459811Y-106468381D01*
X180455291Y-106463165D01*
X180451476Y-106459350D01*
X180451474Y-106459349D01*
X180451474Y-106459348D01*
X180375431Y-106402422D01*
X180337409Y-106373959D01*
X180337407Y-106373958D01*
X180203912Y-106324168D01*
X180203906Y-106324166D01*
X180196348Y-106323354D01*
X180131798Y-106296616D01*
X180091950Y-106239223D01*
X180089457Y-106169397D01*
X180097578Y-106147310D01*
X180097931Y-106146167D01*
X180097931Y-106146165D01*
X180097933Y-106146162D01*
X180108000Y-106077064D01*
X180108000Y-105639580D01*
X180097933Y-105570482D01*
X180097325Y-105569239D01*
X180045823Y-105463891D01*
X179974319Y-105392387D01*
X179959615Y-105365459D01*
X179943023Y-105339641D01*
X179942131Y-105333440D01*
X179940834Y-105331064D01*
X179938000Y-105304706D01*
X179938000Y-105115249D01*
X179957685Y-105048210D01*
X180010489Y-105002455D01*
X180049042Y-104991928D01*
X180085612Y-104988086D01*
X180177863Y-104963366D01*
X180209957Y-104959142D01*
X180254982Y-104959142D01*
X180287074Y-104963367D01*
G37*
%TD.AperFunction*%
%TA.AperFunction,Conductor*%
G36*
X179181685Y-104944007D02*
G01*
X179190647Y-104942719D01*
X179214687Y-104953697D01*
X179240039Y-104961142D01*
X179245966Y-104967982D01*
X179254203Y-104971744D01*
X179268492Y-104993978D01*
X179285794Y-105013946D01*
X179288081Y-105024460D01*
X179291977Y-105030522D01*
X179297000Y-105065457D01*
X179297000Y-105304706D01*
X179277315Y-105371745D01*
X179260681Y-105392387D01*
X179189178Y-105463890D01*
X179189176Y-105463891D01*
X179137067Y-105570479D01*
X179137067Y-105570482D01*
X179127000Y-105639580D01*
X179127000Y-106077064D01*
X179127985Y-106083822D01*
X179137067Y-106146164D01*
X179189176Y-106252752D01*
X179207998Y-106271574D01*
X179213252Y-106281197D01*
X179221826Y-106288037D01*
X179229703Y-106311325D01*
X179241483Y-106332897D01*
X179240700Y-106343833D01*
X179244215Y-106354222D01*
X179238252Y-106378068D01*
X179236499Y-106402589D01*
X179229481Y-106413146D01*
X179227267Y-106422005D01*
X179212934Y-106438042D01*
X179205256Y-106449595D01*
X179200183Y-106454364D01*
X179193526Y-106459348D01*
X179190301Y-106463655D01*
X179182439Y-106471048D01*
X179160509Y-106482159D01*
X179140823Y-106496894D01*
X179129889Y-106497674D01*
X179120114Y-106502628D01*
X179095658Y-106500120D01*
X179071131Y-106501872D01*
X179061511Y-106496618D01*
X179050609Y-106495500D01*
X179031388Y-106480165D01*
X179009811Y-106468381D01*
X179005291Y-106463165D01*
X179001476Y-106459350D01*
X179001474Y-106459349D01*
X179001474Y-106459348D01*
X178925431Y-106402422D01*
X178887409Y-106373959D01*
X178887407Y-106373958D01*
X178753912Y-106324168D01*
X178753910Y-106324167D01*
X178753909Y-106324167D01*
X178753908Y-106324166D01*
X178753905Y-106324166D01*
X178694907Y-106317822D01*
X178272657Y-106317822D01*
X178205618Y-106298137D01*
X178159863Y-106245333D01*
X178149919Y-106176175D01*
X178156225Y-106155714D01*
X178155090Y-106155364D01*
X178157931Y-106146167D01*
X178157931Y-106146165D01*
X178157933Y-106146162D01*
X178168000Y-106077064D01*
X178168000Y-105639580D01*
X178157933Y-105570482D01*
X178157325Y-105569239D01*
X178105823Y-105463891D01*
X178034319Y-105392387D01*
X178000834Y-105331064D01*
X177998000Y-105304706D01*
X177998000Y-105065457D01*
X178017685Y-104998418D01*
X178070489Y-104952663D01*
X178122000Y-104941457D01*
X179173000Y-104941457D01*
X179181685Y-104944007D01*
G37*
%TD.AperFunction*%
%TD*%
%TA.AperFunction,Conductor*%
%TO.N,/AS5048_Der/GND_s*%
G36*
X181845984Y-102550754D02*
G01*
X181882076Y-102600161D01*
X181887000Y-102630996D01*
X181887000Y-105166439D01*
X181868093Y-105224630D01*
X181818593Y-105260594D01*
X181757407Y-105260594D01*
X181755304Y-105259884D01*
X181730227Y-105251109D01*
X181707500Y-105248978D01*
X181707500Y-105759322D01*
X181688593Y-105817513D01*
X181639093Y-105853477D01*
X181608500Y-105858322D01*
X181406500Y-105858322D01*
X181348309Y-105839415D01*
X181312345Y-105789915D01*
X181307500Y-105759322D01*
X181307500Y-105248978D01*
X181284772Y-105251109D01*
X181284770Y-105251110D01*
X181159579Y-105294916D01*
X181052860Y-105373680D01*
X181052852Y-105373688D01*
X181048902Y-105379040D01*
X180999131Y-105414628D01*
X180937948Y-105414164D01*
X180920452Y-105406380D01*
X180908754Y-105399752D01*
X180899875Y-105390873D01*
X180850330Y-105366652D01*
X180847699Y-105365161D01*
X180828976Y-105344704D01*
X180809045Y-105325422D01*
X180808192Y-105321996D01*
X180806389Y-105320026D01*
X180805290Y-105310333D01*
X180797500Y-105279025D01*
X180797500Y-104941458D01*
X180797500Y-104941457D01*
X180797499Y-104941457D01*
X180696888Y-104941457D01*
X180638697Y-104922550D01*
X180626890Y-104912466D01*
X180552063Y-104837639D01*
X180497483Y-104806127D01*
X180433377Y-104769115D01*
X180433373Y-104769113D01*
X180300996Y-104733642D01*
X180300994Y-104733642D01*
X180163944Y-104733642D01*
X180121142Y-104745111D01*
X180027248Y-104770270D01*
X180013388Y-104769543D01*
X180000128Y-104773632D01*
X179983595Y-104767982D01*
X179966147Y-104767068D01*
X179955362Y-104758334D01*
X179942230Y-104753847D01*
X179922889Y-104732038D01*
X179918597Y-104728562D01*
X179918073Y-104726606D01*
X179915889Y-104724144D01*
X179873965Y-104651532D01*
X179873964Y-104651530D01*
X179814292Y-104591858D01*
X179814289Y-104591856D01*
X179804758Y-104582325D01*
X179776981Y-104527808D01*
X179786552Y-104467376D01*
X179829817Y-104424111D01*
X179874762Y-104413321D01*
X179987290Y-104413321D01*
X179987291Y-104413320D01*
X180012374Y-104410412D01*
X180022506Y-104405938D01*
X180043668Y-104403778D01*
X180063997Y-104397511D01*
X180073444Y-104400739D01*
X180083375Y-104399726D01*
X180102491Y-104405937D01*
X180112625Y-104410412D01*
X180112624Y-104410412D01*
X180137704Y-104413321D01*
X180187500Y-104413320D01*
X180187500Y-103578323D01*
X180187499Y-103578322D01*
X179186500Y-103578322D01*
X179128309Y-103559415D01*
X179092345Y-103509915D01*
X179087500Y-103479322D01*
X179087500Y-103277322D01*
X179106407Y-103219131D01*
X179155907Y-103183167D01*
X179186500Y-103178322D01*
X180288500Y-103178322D01*
X180346691Y-103197229D01*
X180382655Y-103246729D01*
X180387500Y-103277322D01*
X180387500Y-103378321D01*
X180387501Y-103378322D01*
X180488500Y-103378322D01*
X180546691Y-103397229D01*
X180582655Y-103446729D01*
X180587500Y-103477322D01*
X180587500Y-104413320D01*
X180587501Y-104413321D01*
X180637290Y-104413321D01*
X180637291Y-104413320D01*
X180662374Y-104410412D01*
X180764976Y-104365109D01*
X180767260Y-104362825D01*
X180771369Y-104360730D01*
X180772550Y-104359922D01*
X180772655Y-104360075D01*
X180821774Y-104335042D01*
X180837260Y-104333821D01*
X181264218Y-104333821D01*
X181264222Y-104333820D01*
X181264224Y-104333820D01*
X181285257Y-104329636D01*
X181328535Y-104321029D01*
X181401472Y-104272294D01*
X181450207Y-104199357D01*
X181463000Y-104135041D01*
X181462999Y-102631577D01*
X181481906Y-102573387D01*
X181531406Y-102537423D01*
X181561735Y-102532579D01*
X181787747Y-102531996D01*
X181845984Y-102550754D01*
G37*
%TD.AperFunction*%
%TD*%
M02*
