M48
; DRILL file {KiCad 9.0.6} date 2026-05-02T18:07:50-0500
; FORMAT={-:-/ absolute / metric / decimal}
; #@! TF.CreationDate,2026-05-02T18:07:50-05:00
; #@! TF.GenerationSoftware,Kicad,Pcbnew,9.0.6
; #@! TF.FileFunction,Plated,1,2,PTH
FMAT,2
METRIC
; #@! TA.AperFunction,Plated,PTH,ViaDrill
T1C0.300
; #@! TA.AperFunction,Plated,PTH,ViaDrill
T2C0.350
; #@! TA.AperFunction,Plated,PTH,ComponentDrill
T3C0.400
; #@! TA.AperFunction,Plated,PTH,ComponentDrill
T4C0.500
%
G90
G05
T1
X112.499Y-128.496
X112.537Y-124.288
X112.557Y-125.218
X112.567Y-126.178
X112.578Y-127.178
X113.697Y-125.358
X116.617Y-133.807
X117.097Y-135.265
X126.121Y-134.915
X139.417Y-128.018
X139.417Y-131.378
X139.588Y-134.728
X145.718Y-125.468
T2
X112.447Y-133.848
X112.657Y-85.638
X112.737Y-84.138
X113.137Y-116.848
X113.197Y-87.338
X113.477Y-127.238
X114.188Y-115.838
X114.468Y-116.918
X114.987Y-125.348
X115.417Y-116.008
X115.587Y-124.278
X115.987Y-117.268
X116.147Y-134.528
X116.177Y-89.618
X116.507Y-115.878
X116.649Y-131.554
X116.657Y-133.008
X116.677Y-141.528
X117.057Y-132.315
X117.108Y-130.898
X117.387Y-141.128
X117.537Y-136.018
X117.657Y-120.908
X117.707Y-119.268
X117.707Y-120.068
X117.797Y-126.868
X117.837Y-126.068
X118.487Y-136.528
X118.617Y-125.198
X119.094Y-116.633
X119.566Y-126.828
X119.817Y-137.158
X119.877Y-133.048
X120.377Y-139.268
X120.487Y-132.218
X121.177Y-131.188
X121.337Y-133.148
X121.338Y-134.449
X121.357Y-129.56
X121.357Y-130.409
X121.588Y-127.151
X121.703Y-122.343
X122.088Y-68.188
X122.427Y-138.33
X122.822Y-121.076
X122.938Y-135.618
X123.137Y-127.108
X123.229Y-138.44
X123.328Y-134.915
X123.347Y-129.408
X123.857Y-56.668
X124.047Y-60.858
X124.29Y-134.915
X124.627Y-62.328
X124.727Y-128.96
X124.857Y-122.798
X125.139Y-134.915
X125.157Y-59.708
X125.237Y-128.315
X125.307Y-117.478
X125.607Y-138.708
X125.616Y-92.508
X125.627Y-93.308
X125.667Y-123.828
X126.666Y-123.049
X127.127Y-71.988
X127.407Y-118.278
X127.407Y-122.748
X127.507Y-135.566
X127.543Y-134.312
X127.869Y-128.588
X128.022Y-134.953
X128.387Y-122.648
X128.398Y-121.398
X128.427Y-120.138
X128.727Y-128.538
X128.957Y-137.548
X129.477Y-118.258
X129.477Y-122.728
X130.468Y-126.203
X130.625Y-70.568
X130.697Y-136.448
X131.327Y-132.858
X131.362Y-131.862
X131.477Y-136.748
X131.588Y-118.238
X131.588Y-122.748
X131.926Y-131.368
X132.037Y-125.718
X132.137Y-138.568
X132.197Y-132.908
X132.317Y-136.438
X132.487Y-137.635
X132.492Y-130.803
X132.667Y-122.808
X132.757Y-102.998
X132.767Y-124.578
X132.857Y-104.268
X132.998Y-129.908
X133.058Y-105.588
X133.107Y-133.248
X133.697Y-118.208
X133.697Y-122.708
X133.817Y-129.578
X133.827Y-138.218
X133.868Y-137.058
X134.127Y-69.138
X134.498Y-138.798
X134.517Y-137.738
X134.697Y-129.628
X135.547Y-127.178
X135.748Y-129.888
X135.808Y-112.218
X135.957Y-110.068
X135.977Y-110.898
X135.998Y-109.268
X136.257Y-133.248
X136.273Y-121.568
X136.302Y-124.928
X136.327Y-108.598
X136.438Y-112.938
X136.558Y-115.618
X136.718Y-114.458
X136.778Y-136.798
X136.797Y-103.888
X136.887Y-131.848
X137.088Y-133.268
X137.188Y-109.008
X137.197Y-112.248
X137.468Y-115.058
X137.468Y-134.553
X137.567Y-131.218
X137.627Y-67.598
X137.77Y-131.97
X138.007Y-112.868
X138.148Y-127.1
X138.438Y-103.728
X138.477Y-123.898
X138.567Y-106.558
X138.621Y-132.975
X138.697Y-112.248
X138.827Y-110.018
X139.107Y-109.498
X139.107Y-110.508
X139.173Y-124.708
X139.278Y-116.588
X139.287Y-102.688
X139.357Y-107.428
X139.427Y-123.678
X139.468Y-133.138
X139.982Y-108.518
X140.344Y-107.142
X140.347Y-104.028
X140.567Y-138.198
X140.757Y-137.218
X140.987Y-124.108
X140.987Y-141.078
X141.127Y-66.498
X141.257Y-108.808
X141.278Y-113.778
X141.278Y-116.618
X141.627Y-138.018
X141.718Y-136.978
X141.927Y-105.148
X142.107Y-128.878
X142.127Y-132.128
X142.597Y-123.558
X142.647Y-112.128
X142.827Y-111.318
X143.007Y-105.138
X143.167Y-106.278
X143.371Y-64.152
X143.517Y-57.208
X143.547Y-112.098
X143.808Y-119.508
X143.892Y-132.661
X143.968Y-109.558
X143.977Y-56.268
X144.088Y-105.728
X144.257Y-113.138
X144.627Y-109.868
X144.688Y-57.188
X144.707Y-119.518
X144.897Y-106.388
X144.968Y-112.068
X145.058Y-133.518
X145.088Y-56.278
X145.102Y-121.568
X145.317Y-131.608
X145.737Y-130.678
X145.767Y-62.148
X146.107Y-118.698
X146.177Y-97.158
X146.237Y-112.728
X146.558Y-125.448
X146.778Y-111.388
X146.787Y-120.358
X146.887Y-61.488
X147.097Y-98.408
X147.248Y-132.698
X147.468Y-135.568
X147.517Y-109.498
X147.567Y-125.438
X148.007Y-104.488
X148.097Y-124.558
X148.118Y-103.638
X148.257Y-128.888
X148.387Y-138.298
X148.707Y-125.428
X148.757Y-123.718
X148.789Y-113.312
X149.088Y-129.468
X149.278Y-124.548
X149.387Y-106.038
X149.387Y-109.688
X149.417Y-130.378
X149.578Y-135.589
X149.602Y-111.323
X149.618Y-105.198
X149.727Y-138.018
X149.737Y-131.368
X149.767Y-136.718
X149.778Y-118.828
X149.797Y-132.178
X149.857Y-125.428
X149.927Y-123.838
X150.007Y-110.378
X150.291Y-109.788
X150.291Y-112.488
X150.317Y-130.578
X150.368Y-124.558
X150.427Y-105.068
X150.427Y-137.388
X150.567Y-133.118
X151.207Y-116.818
X151.248Y-66.168
X151.477Y-118.028
X151.547Y-122.198
X151.558Y-133.148
X151.567Y-124.338
X151.667Y-114.068
X151.727Y-125.468
X152.037Y-128.718
X152.347Y-129.718
X152.477Y-116.988
X152.537Y-124.118
X152.588Y-133.128
X152.677Y-118.298
X152.718Y-100.318
X152.778Y-130.878
X152.797Y-125.408
X152.968Y-129.088
X153.118Y-114.058
X153.347Y-110.518
X153.397Y-109.568
X153.397Y-124.548
X153.427Y-112.758
X153.447Y-123.588
X153.688Y-112.048
X153.817Y-110.128
X153.917Y-128.308
X153.917Y-129.428
X153.917Y-130.418
X153.938Y-127.018
X154.237Y-112.838
X154.507Y-112.178
X154.618Y-135.018
X154.657Y-124.438
X154.657Y-134.258
X154.727Y-123.548
X154.748Y-133.528
X154.757Y-67.508
X154.817Y-130.808
X154.887Y-129.998
X155.007Y-138.088
X155.058Y-109.868
X155.188Y-125.708
X155.308Y-108.758
X155.42Y-134.164
X155.517Y-103.068
X155.517Y-135.348
X155.567Y-137.398
X155.597Y-136.508
X155.677Y-124.458
X155.757Y-123.558
X155.857Y-138.108
X155.957Y-61.938
X156.097Y-125.948
X156.287Y-109.968
X156.477Y-112.018
X156.528Y-108.768
X156.537Y-128.568
X156.537Y-129.458
X156.577Y-102.308
X156.588Y-103.478
X156.627Y-112.988
X156.727Y-124.608
X156.748Y-123.698
X156.937Y-121.778
X156.947Y-120.978
X156.968Y-126.138
X157.047Y-64.098
X157.517Y-128.568
X157.637Y-129.448
X157.677Y-113.078
X157.817Y-62.868
X158.248Y-69.048
X158.357Y-65.218
X158.618Y-133.188
X158.707Y-128.558
X158.718Y-124.268
X158.748Y-125.178
X158.778Y-129.418
X158.787Y-123.448
X158.797Y-126.158
X158.847Y-134.038
X159.067Y-131.458
X159.097Y-130.578
X159.157Y-127.108
X159.547Y-123.878
X159.797Y-128.508
X159.817Y-131.708
X159.847Y-129.438
X160.137Y-123.379
X160.347Y-133.938
X160.657Y-123.908
X161.227Y-133.878
X161.368Y-66.988
X161.718Y-97.218
X161.748Y-70.448
X161.838Y-133.298
X162.207Y-67.588
X162.287Y-106.138
X162.547Y-136.608
X162.707Y-131.688
X162.947Y-133.048
X163.287Y-67.678
X163.377Y-104.988
X163.897Y-93.348
X163.947Y-122.368
X164.047Y-133.938
X164.047Y-135.008
X164.047Y-135.998
X164.592Y-92.748
X164.627Y-103.728
X165.248Y-72.018
X165.272Y-92.326
X165.727Y-122.968
X165.977Y-91.946
X166.097Y-129.508
X166.137Y-137.728
X166.177Y-128.428
X166.207Y-125.328
X166.257Y-131.448
X166.327Y-132.388
X166.347Y-126.668
X166.637Y-136.528
X167.188Y-91.545
X167.308Y-125.848
X167.347Y-137.338
X167.377Y-135.438
X167.397Y-131.478
X167.397Y-132.508
X167.427Y-129.168
X167.447Y-128.028
X167.927Y-114.938
X167.957Y-110.248
X167.968Y-116.188
X167.968Y-117.578
X167.977Y-118.888
X167.977Y-122.298
X168.007Y-108.838
X168.088Y-107.328
X169.137Y-105.748
X169.737Y-136.708
X170.207Y-130.578
X170.317Y-88.998
X170.627Y-95.318
X170.857Y-96.648
X171.058Y-130.578
X171.308Y-112.458
X171.308Y-113.908
X171.327Y-111.138
X171.347Y-107.038
X171.357Y-104.518
X171.367Y-103.208
X171.367Y-105.818
X171.387Y-101.948
X171.477Y-89.858
X171.507Y-94.398
X171.817Y-89.038
X171.917Y-125.938
X171.917Y-126.848
X171.938Y-127.848
X171.938Y-130.638
X171.938Y-131.468
X171.938Y-132.408
X171.947Y-97.368
X171.957Y-129.738
X171.977Y-128.828
X172.278Y-96.048
X172.938Y-89.438
X175.137Y-132.278
X175.157Y-126.268
X175.167Y-129.928
X175.177Y-127.498
X175.177Y-128.618
X175.177Y-131.088
X175.927Y-126.878
X175.947Y-122.988
X175.998Y-128.068
X176.017Y-129.318
X176.017Y-130.488
X176.017Y-131.798
X176.218Y-124.168
X177.507Y-124.228
X179.748Y-124.608
X180.417Y-125.358
X180.498Y-124.158
T3
X111.667Y-118.768
X111.667Y-120.218
X111.667Y-121.668
X111.667Y-123.118
X112.487Y-118.768
X112.487Y-120.218
X112.487Y-121.668
X112.487Y-123.118
X114.587Y-118.768
X114.587Y-120.218
X114.587Y-121.668
X114.587Y-123.118
X115.407Y-118.768
X115.407Y-120.218
X115.407Y-121.668
X115.407Y-123.118
X176.968Y-118.778
X176.968Y-120.228
X176.968Y-121.678
X176.968Y-123.128
X177.788Y-118.778
X177.788Y-120.228
X177.788Y-121.678
X177.788Y-123.128
X179.887Y-118.778
X179.887Y-120.228
X179.887Y-121.678
X179.887Y-123.128
X180.707Y-118.778
X180.707Y-120.228
X180.707Y-121.678
X180.707Y-123.128
T4
X114.543Y-83.974
X114.689Y-85.165
X114.949Y-87.279
X115.095Y-88.471
X116.462Y-83.739
X116.608Y-84.93
X116.868Y-87.044
X117.014Y-88.235
X118.381Y-83.503
X118.527Y-84.694
X118.787Y-86.808
X118.933Y-87.999
X120.3Y-83.267
X120.446Y-84.459
X120.705Y-86.573
X120.852Y-87.764
X125.927Y-61.621
X126.872Y-60.882
X127.117Y-63.144
X128.063Y-62.406
X128.307Y-64.668
X128.551Y-59.571
X129.253Y-63.929
X129.497Y-58.832
X129.498Y-66.191
X129.741Y-61.094
X130.443Y-65.453
X130.687Y-60.356
X130.931Y-62.618
X131.877Y-61.879
X132.122Y-64.141
X133.067Y-63.402
X159.246Y-63.481
X160.192Y-64.22
X160.436Y-61.958
X161.382Y-62.696
X161.627Y-60.434
X161.87Y-65.531
X162.572Y-61.173
X162.816Y-66.27
X162.817Y-58.911
X163.061Y-64.008
X163.763Y-59.65
X164.006Y-64.747
X164.251Y-62.484
X165.196Y-63.223
X165.441Y-60.961
X166.387Y-61.7
X171.424Y-87.752
X171.57Y-86.56
X171.83Y-84.446
X171.976Y-83.255
X173.343Y-87.987
X173.489Y-86.796
X173.749Y-84.682
X173.895Y-83.491
X175.262Y-88.223
X175.408Y-87.032
X175.668Y-84.918
X175.814Y-83.727
X177.181Y-88.458
X177.327Y-87.267
X177.587Y-85.153
X177.733Y-83.962
M30
