%TF.GenerationSoftware,KiCad,Pcbnew,9.0.6*%
%TF.CreationDate,2026-05-02T18:07:55-05:00*%
%TF.ProjectId,Micromouse,4d696372-6f6d-46f7-9573-652e6b696361,rev?*%
%TF.SameCoordinates,Original*%
%TF.FileFunction,Soldermask,Bot*%
%TF.FilePolarity,Negative*%
%FSLAX46Y46*%
G04 Gerber Fmt 4.6, Leading zero omitted, Abs format (unit mm)*
G04 Created by KiCad (PCBNEW 9.0.6) date 2026-05-02 18:07:55*
%MOMM*%
%LPD*%
G01*
G04 APERTURE LIST*
G04 Aperture macros list*
%AMRoundRect*
0 Rectangle with rounded corners*
0 $1 Rounding radius*
0 $2 $3 $4 $5 $6 $7 $8 $9 X,Y pos of 4 corners*
0 Add a 4 corners polygon primitive as box body*
4,1,4,$2,$3,$4,$5,$6,$7,$8,$9,$2,$3,0*
0 Add four circle primitives for the rounded corners*
1,1,$1+$1,$2,$3*
1,1,$1+$1,$4,$5*
1,1,$1+$1,$6,$7*
1,1,$1+$1,$8,$9*
0 Add four rect primitives between the rounded corners*
20,1,$1+$1,$2,$3,$4,$5,0*
20,1,$1+$1,$4,$5,$6,$7,0*
20,1,$1+$1,$6,$7,$8,$9,0*
20,1,$1+$1,$8,$9,$2,$3,0*%
G04 Aperture macros list end*
%ADD10C,0.900000*%
%ADD11C,0.700000*%
%ADD12C,0.600000*%
%ADD13RoundRect,0.155000X0.212500X0.155000X-0.212500X0.155000X-0.212500X-0.155000X0.212500X-0.155000X0*%
%ADD14RoundRect,0.155000X-0.155000X0.212500X-0.155000X-0.212500X0.155000X-0.212500X0.155000X0.212500X0*%
%ADD15RoundRect,0.138500X0.268500X0.138500X-0.268500X0.138500X-0.268500X-0.138500X0.268500X-0.138500X0*%
%ADD16RoundRect,0.138500X0.138500X0.268500X-0.138500X0.268500X-0.138500X-0.268500X0.138500X-0.268500X0*%
G04 APERTURE END LIST*
D10*
%TO.C,S1*%
X154687500Y-140340401D03*
X157687500Y-140340401D03*
%TD*%
D11*
%TO.C,J4*%
X133067320Y-63402443D03*
X129497630Y-66191389D03*
X130443243Y-65452595D03*
X132121706Y-64141236D03*
X129252986Y-63929135D03*
X131877063Y-61878982D03*
X128307372Y-64667928D03*
X130931448Y-62617775D03*
X127117114Y-63144467D03*
X128062727Y-62405673D03*
X129741190Y-61094314D03*
X130686802Y-60355520D03*
X129496545Y-58832060D03*
X125926856Y-61621006D03*
X126872470Y-60882211D03*
X128550932Y-59570853D03*
%TD*%
%TO.C,J7*%
X177327075Y-87267290D03*
X177732900Y-83962112D03*
X177180831Y-88458346D03*
X177586656Y-85153167D03*
X175814011Y-83726502D03*
X175261942Y-88222736D03*
X175408186Y-87031680D03*
X175667767Y-84917557D03*
X173489296Y-86796070D03*
X173895121Y-83490892D03*
X173343052Y-87987126D03*
X173748877Y-84681947D03*
X171424163Y-87751516D03*
X171570407Y-86560460D03*
X171829988Y-84446337D03*
X171976232Y-83255282D03*
%TD*%
%TO.C,J8*%
X120851681Y-87763691D03*
X120705438Y-86572635D03*
X120445856Y-84458512D03*
X120299613Y-83267457D03*
X118932792Y-87999301D03*
X118786549Y-86808245D03*
X118526967Y-84694122D03*
X118380724Y-83503067D03*
X117013902Y-88234911D03*
X116867659Y-87043855D03*
X116608077Y-84929732D03*
X116461834Y-83738677D03*
X115095013Y-88470521D03*
X114948770Y-87279465D03*
X114689188Y-85165342D03*
X114542945Y-83974287D03*
%TD*%
%TO.C,J5*%
X165441027Y-60960934D03*
X163762564Y-59649575D03*
X166386640Y-61699729D03*
X162816951Y-58910782D03*
X164250769Y-62484395D03*
X165196382Y-63223190D03*
X162572306Y-61173037D03*
X161626692Y-60434243D03*
X164006123Y-64746651D03*
X163060510Y-64007857D03*
X161382047Y-62696498D03*
X160436434Y-61957704D03*
X162815865Y-66270112D03*
X161870251Y-65531317D03*
X160191788Y-64219959D03*
X159246177Y-63481166D03*
%TD*%
D12*
%TO.C,J2*%
X180707500Y-118778322D03*
X179887500Y-118778322D03*
X177788100Y-118778322D03*
X176968100Y-118778322D03*
X180707500Y-120228322D03*
X179887500Y-120228322D03*
X177788100Y-120228322D03*
X176968100Y-120228322D03*
X180707500Y-121678322D03*
X179887500Y-121678322D03*
X177788100Y-121678322D03*
X176968100Y-121678322D03*
X180707500Y-123128322D03*
X179887500Y-123128322D03*
X177788100Y-123128322D03*
X176968100Y-123128322D03*
%TD*%
%TO.C,J1*%
X111667500Y-123118322D03*
X112487500Y-123118322D03*
X114586900Y-123118322D03*
X115406900Y-123118322D03*
X111667500Y-121668322D03*
X112487500Y-121668322D03*
X114586900Y-121668322D03*
X115406900Y-121668322D03*
X111667500Y-120218322D03*
X112487500Y-120218322D03*
X114586900Y-120218322D03*
X115406900Y-120218322D03*
X111667500Y-118768322D03*
X112487500Y-118768322D03*
X114586900Y-118768322D03*
X115406900Y-118768322D03*
%TD*%
D13*
%TO.C,C48*%
X146165000Y-104948322D03*
X145030000Y-104948322D03*
%TD*%
D14*
%TO.C,C47*%
X148747500Y-101570822D03*
X148747500Y-102705822D03*
%TD*%
D15*
%TO.C,U6*%
X147347500Y-101798322D03*
X147347500Y-102298322D03*
X147347500Y-102798322D03*
X147347500Y-103298322D03*
D16*
X146687500Y-103458322D03*
X146187500Y-103458322D03*
X145687500Y-103458322D03*
D15*
X145027500Y-103298322D03*
X145027500Y-102798322D03*
X145027500Y-102298322D03*
X145027500Y-101798322D03*
D16*
X145687500Y-101638322D03*
X146187500Y-101638322D03*
X146687500Y-101638322D03*
%TD*%
M02*
