%TF.GenerationSoftware,KiCad,Pcbnew,9.0.6*%
%TF.CreationDate,2026-04-22T14:29:12-05:00*%
%TF.ProjectId,Encoder_Der,456e636f-6465-4725-9f44-65722e6b6963,rev?*%
%TF.SameCoordinates,Original*%
%TF.FileFunction,Copper,L2,Bot*%
%TF.FilePolarity,Positive*%
%FSLAX46Y46*%
G04 Gerber Fmt 4.6, Leading zero omitted, Abs format (unit mm)*
G04 Created by KiCad (PCBNEW 9.0.6) date 2026-04-22 14:29:12*
%MOMM*%
%LPD*%
G01*
G04 APERTURE LIST*
G04 Aperture macros list*
%AMRoundRect*
0 Rectangle with rounded corners*
0 $1 Rounding radius*
0 $2 $3 $4 $5 $6 $7 $8 $9 X,Y pos of 4 corners*
0 Add a 4 corners polygon primitive as box body*
4,1,4,$2,$3,$4,$5,$6,$7,$8,$9,$2,$3,0*
0 Add four circle primitives for the rounded corners*
1,1,$1+$1,$2,$3*
1,1,$1+$1,$4,$5*
1,1,$1+$1,$6,$7*
1,1,$1+$1,$8,$9*
0 Add four rect primitives between the rounded corners*
20,1,$1+$1,$2,$3,$4,$5,0*
20,1,$1+$1,$4,$5,$6,$7,0*
20,1,$1+$1,$6,$7,$8,$9,0*
20,1,$1+$1,$8,$9,$2,$3,0*%
G04 Aperture macros list end*
%TA.AperFunction,ComponentPad*%
%ADD10RoundRect,0.275000X0.275000X-0.325000X0.275000X0.325000X-0.275000X0.325000X-0.275000X-0.325000X0*%
%TD*%
%TA.AperFunction,ComponentPad*%
%ADD11RoundRect,0.275000X0.275000X-0.413500X0.275000X0.413500X-0.275000X0.413500X-0.275000X-0.413500X0*%
%TD*%
%TA.AperFunction,SMDPad,CuDef*%
%ADD12RoundRect,0.140000X0.140000X0.170000X-0.140000X0.170000X-0.140000X-0.170000X0.140000X-0.170000X0*%
%TD*%
%TA.AperFunction,ViaPad*%
%ADD13C,0.600000*%
%TD*%
%TA.AperFunction,Conductor*%
%ADD14C,0.200000*%
%TD*%
G04 APERTURE END LIST*
D10*
%TO.P,J11,1,Pin_1*%
%TO.N,/AS5048_Der/+3V0_s*%
X176922500Y-107138322D03*
D11*
X176922500Y-107824822D03*
D10*
%TO.P,J11,2,Pin_2*%
%TO.N,/AS5048_Der/SDA_s*%
X178372500Y-107138322D03*
D11*
X178372500Y-107824822D03*
D10*
%TO.P,J11,3,Pin_3*%
%TO.N,/AS5048_Der/SCL_s*%
X179822500Y-107138322D03*
D11*
X179822500Y-107824822D03*
D10*
%TO.P,J11,4,Pin_4*%
%TO.N,/AS5048_Der/GND_s*%
X181272500Y-107138322D03*
D11*
X181272500Y-107824822D03*
%TD*%
D12*
%TO.P,C45,1*%
%TO.N,/AS5048_Der/+3V0_s*%
X179567500Y-100508322D03*
%TO.P,C45,2*%
%TO.N,/AS5048_Der/GND_s*%
X178607500Y-100508322D03*
%TD*%
D13*
%TO.N,/AS5048_Der/+3V0_s*%
X180797500Y-101998322D03*
X180232469Y-105254142D03*
X179507500Y-98948322D03*
X178597500Y-105148322D03*
%TO.N,/AS5048_Der/GND_s*%
X178137500Y-99018322D03*
X181367500Y-104858322D03*
X179007500Y-102088322D03*
%TD*%
D14*
%TO.N,/AS5048_Der/+3V0_s*%
X179567500Y-100508322D02*
X179567500Y-99008322D01*
X179655000Y-99095822D02*
X179507500Y-98948322D01*
X181157500Y-101638322D02*
X181157500Y-100828322D01*
X178877500Y-103348322D02*
X180787500Y-103348322D01*
X180797500Y-101998322D02*
X181157500Y-101638322D01*
X179567500Y-100508322D02*
X180837500Y-100508322D01*
X181167500Y-102368322D02*
X180797500Y-101998322D01*
X180837500Y-100508322D02*
X181157500Y-100828322D01*
X179567500Y-99008322D02*
X179507500Y-98948322D01*
X180787500Y-103348322D02*
X181167500Y-102968322D01*
X178597500Y-105148322D02*
X178597500Y-103628322D01*
X181167500Y-102968322D02*
X181167500Y-102368322D01*
X178597500Y-103628322D02*
X178877500Y-103348322D01*
%TO.N,/AS5048_Der/GND_s*%
X178137500Y-99018322D02*
X178607500Y-99488322D01*
X178607500Y-100508322D02*
X178607500Y-101688322D01*
X178607500Y-101688322D02*
X179007500Y-102088322D01*
X178607500Y-99488322D02*
X178607500Y-100508322D01*
%TD*%
%TA.AperFunction,Conductor*%
%TO.N,/AS5048_Der/+3V0_s*%
G36*
X178829060Y-104961142D02*
G01*
X178871047Y-105006386D01*
X178873984Y-105011807D01*
X178908863Y-105058151D01*
X178908864Y-105058152D01*
X178932483Y-105083938D01*
X178938182Y-105090159D01*
X178942255Y-105092509D01*
X178946616Y-105097036D01*
X178992458Y-105121481D01*
X179019397Y-105137027D01*
X179019402Y-105137028D01*
X179019407Y-105137031D01*
X179025070Y-105138871D01*
X179029355Y-105141156D01*
X179053549Y-105148124D01*
X179055533Y-105148769D01*
X179055550Y-105148774D01*
X179077538Y-105155919D01*
X179077543Y-105155920D01*
X179077546Y-105155921D01*
X179091482Y-105158128D01*
X179147224Y-105166957D01*
X179147228Y-105166957D01*
X179768037Y-105166957D01*
X179768050Y-105166957D01*
X179785745Y-105166262D01*
X179801232Y-105165043D01*
X179843559Y-105153105D01*
X179885905Y-105141162D01*
X179885906Y-105141161D01*
X179885911Y-105141160D01*
X179940425Y-105113384D01*
X179997503Y-105071916D01*
X180039796Y-105029622D01*
X180065468Y-105009922D01*
X180104472Y-104987404D01*
X180134369Y-104975020D01*
X180156116Y-104969193D01*
X180177862Y-104963367D01*
X180209955Y-104959142D01*
X180254982Y-104959142D01*
X180287075Y-104963367D01*
X180330562Y-104975019D01*
X180360468Y-104987406D01*
X180399463Y-105009919D01*
X180425143Y-105029625D01*
X180467438Y-105071920D01*
X180480441Y-105083938D01*
X180480447Y-105083943D01*
X180492249Y-105094023D01*
X180508589Y-105103174D01*
X180557463Y-105153105D01*
X180572000Y-105211363D01*
X180572000Y-106146805D01*
X180577560Y-106196565D01*
X180577561Y-106196574D01*
X180587205Y-106239190D01*
X180594578Y-106264693D01*
X180594579Y-106264695D01*
X180597920Y-106270147D01*
X180616162Y-106337593D01*
X180595044Y-106404195D01*
X180541271Y-106448806D01*
X180471915Y-106457264D01*
X180417881Y-106434200D01*
X180337410Y-106373960D01*
X180337409Y-106373959D01*
X180337407Y-106373958D01*
X180203912Y-106324168D01*
X180203910Y-106324167D01*
X180203909Y-106324167D01*
X180203908Y-106324166D01*
X180203905Y-106324166D01*
X180144898Y-106317822D01*
X179500112Y-106317822D01*
X179500103Y-106317823D01*
X179441090Y-106324166D01*
X179307592Y-106373958D01*
X179307590Y-106373959D01*
X179193523Y-106459350D01*
X179187255Y-106465619D01*
X179185266Y-106463630D01*
X179140823Y-106496894D01*
X179071131Y-106501872D01*
X179009811Y-106468381D01*
X179005291Y-106463165D01*
X179001476Y-106459350D01*
X179001474Y-106459349D01*
X179001474Y-106459348D01*
X178887410Y-106373960D01*
X178887409Y-106373959D01*
X178887407Y-106373958D01*
X178753912Y-106324168D01*
X178753910Y-106324167D01*
X178753909Y-106324167D01*
X178753908Y-106324166D01*
X178753905Y-106324166D01*
X178694898Y-106317822D01*
X178050112Y-106317822D01*
X178050103Y-106317823D01*
X177991090Y-106324166D01*
X177857592Y-106373958D01*
X177857590Y-106373959D01*
X177743526Y-106459348D01*
X177658137Y-106573412D01*
X177658136Y-106573414D01*
X177608346Y-106706909D01*
X177608344Y-106706916D01*
X177602000Y-106765914D01*
X177602000Y-108285709D01*
X177602001Y-108285715D01*
X177604673Y-108310569D01*
X177592266Y-108379328D01*
X177544655Y-108430465D01*
X177481383Y-108447822D01*
X176695629Y-108447822D01*
X176679442Y-108446761D01*
X176600297Y-108436340D01*
X176569027Y-108427960D01*
X176502856Y-108400548D01*
X176474820Y-108384360D01*
X176417995Y-108340751D01*
X176395105Y-108317857D01*
X176370446Y-108285715D01*
X176351507Y-108261028D01*
X176335325Y-108232992D01*
X176307920Y-108166810D01*
X176299547Y-108135549D01*
X176289058Y-108055789D01*
X176288001Y-108039642D01*
X176288004Y-108021409D01*
X176288000Y-108021402D01*
X176288000Y-105065457D01*
X176307685Y-104998418D01*
X176360489Y-104952663D01*
X176412000Y-104941457D01*
X178762021Y-104941457D01*
X178829060Y-104961142D01*
G37*
%TD.AperFunction*%
%TD*%
%TA.AperFunction,Conductor*%
%TO.N,/AS5048_Der/GND_s*%
G36*
X181845984Y-102550754D02*
G01*
X181882075Y-102600161D01*
X181887000Y-102630996D01*
X181887000Y-106183407D01*
X181868093Y-106241598D01*
X181818593Y-106277562D01*
X181757407Y-106277562D01*
X181750116Y-106274872D01*
X181697606Y-106253122D01*
X181697601Y-106253121D01*
X181585190Y-106238322D01*
X181472501Y-106238322D01*
X181472500Y-106238323D01*
X181472500Y-107039322D01*
X181461717Y-107072508D01*
X181442052Y-107025031D01*
X181385791Y-106968770D01*
X181312282Y-106938322D01*
X181232718Y-106938322D01*
X181159209Y-106968770D01*
X181102948Y-107025031D01*
X181081810Y-107076061D01*
X181077345Y-107069915D01*
X181072500Y-107039322D01*
X181072500Y-106238323D01*
X181072499Y-106238322D01*
X180959806Y-106238322D01*
X180909421Y-106244955D01*
X180849260Y-106233804D01*
X180807144Y-106189421D01*
X180797500Y-106146802D01*
X180797500Y-104941458D01*
X180797500Y-104941457D01*
X180797499Y-104941457D01*
X180696888Y-104941457D01*
X180638697Y-104922550D01*
X180626890Y-104912466D01*
X180552063Y-104837639D01*
X180552060Y-104837637D01*
X180433377Y-104769115D01*
X180433373Y-104769113D01*
X180300996Y-104733642D01*
X180300994Y-104733642D01*
X180163944Y-104733642D01*
X180163941Y-104733642D01*
X180031564Y-104769113D01*
X180031560Y-104769115D01*
X179912877Y-104837637D01*
X179912875Y-104837638D01*
X179912875Y-104837639D01*
X179838051Y-104912462D01*
X179783537Y-104940238D01*
X179768050Y-104941457D01*
X179147228Y-104941457D01*
X179119645Y-104932495D01*
X179091770Y-104924466D01*
X179090697Y-104923089D01*
X179089037Y-104922550D01*
X179054158Y-104876206D01*
X179048966Y-104861888D01*
X179015329Y-104769114D01*
X178923929Y-104517028D01*
X178918000Y-104483283D01*
X178918000Y-103802085D01*
X178936907Y-103743894D01*
X178946996Y-103732081D01*
X178981259Y-103697818D01*
X179035776Y-103670041D01*
X179051263Y-103668822D01*
X180829693Y-103668822D01*
X180829694Y-103668822D01*
X180829695Y-103668822D01*
X180911209Y-103646981D01*
X180984292Y-103604786D01*
X181043964Y-103545114D01*
X181043965Y-103545111D01*
X181364289Y-103224787D01*
X181364292Y-103224786D01*
X181423964Y-103165114D01*
X181466159Y-103092031D01*
X181488000Y-103010517D01*
X181488000Y-102631514D01*
X181506907Y-102573323D01*
X181556407Y-102537359D01*
X181586738Y-102532514D01*
X181787747Y-102531996D01*
X181845984Y-102550754D01*
G37*
%TD.AperFunction*%
%TD*%
%TA.AperFunction,Conductor*%
%TO.N,/AS5048_Der/+3V0_s*%
G36*
X181249604Y-101556630D02*
G01*
X181253031Y-101564903D01*
X181252445Y-101568561D01*
X181094963Y-102047043D01*
X181089121Y-102053830D01*
X181081604Y-102054868D01*
X180802290Y-102000258D01*
X180794828Y-101995307D01*
X180794795Y-101995257D01*
X180638419Y-101760286D01*
X180636688Y-101751500D01*
X180641677Y-101744064D01*
X180643273Y-101743173D01*
X181024012Y-101568561D01*
X181055178Y-101554268D01*
X181060055Y-101553203D01*
X181241331Y-101553203D01*
X181249604Y-101556630D01*
G37*
%TD.AperFunction*%
%TD*%
%TA.AperFunction,Conductor*%
%TO.N,/AS5048_Der/+3V0_s*%
G36*
X178697570Y-104557513D02*
G01*
X178700296Y-104561798D01*
X178837951Y-104941457D01*
X178837952Y-104941457D01*
X178891736Y-105089795D01*
X178597500Y-105149322D01*
X178303264Y-105089795D01*
X178494704Y-104561798D01*
X178500745Y-104555188D01*
X178505703Y-104554086D01*
X178689297Y-104554086D01*
X178697570Y-104557513D01*
G37*
%TD.AperFunction*%
%TD*%
%TA.AperFunction,Conductor*%
%TO.N,/AS5048_Der/GND_s*%
G36*
X178709485Y-101660515D02*
G01*
X179056723Y-101790600D01*
X179063268Y-101796711D01*
X179064095Y-101803831D01*
X179008446Y-102084545D01*
X179003475Y-102091994D01*
X179003442Y-102092016D01*
X178769832Y-102247173D01*
X178761045Y-102248896D01*
X178753613Y-102243900D01*
X178752575Y-102241966D01*
X178689453Y-102092016D01*
X178514336Y-101676011D01*
X178514285Y-101667057D01*
X178520581Y-101660688D01*
X178525120Y-101659772D01*
X178705381Y-101659772D01*
X178709485Y-101660515D01*
G37*
%TD.AperFunction*%
%TD*%
%TA.AperFunction,Conductor*%
%TO.N,/AS5048_Der/+3V0_s*%
G36*
X181090587Y-101943511D02*
G01*
X181095092Y-101949334D01*
X181262016Y-102423715D01*
X181261529Y-102432657D01*
X181254863Y-102438636D01*
X181250979Y-102439299D01*
X181069954Y-102439299D01*
X181065254Y-102438314D01*
X180643588Y-102253359D01*
X180637388Y-102246897D01*
X180637573Y-102237944D01*
X180638540Y-102236175D01*
X180794795Y-102001385D01*
X180802231Y-101996397D01*
X180802227Y-101996397D01*
X181081811Y-101941735D01*
X181090587Y-101943511D01*
G37*
%TD.AperFunction*%
%TD*%
%TA.AperFunction,Conductor*%
%TO.N,/AS5048_Der/GND_s*%
G36*
X178391844Y-98862438D02*
G01*
X178392693Y-98863948D01*
X178464580Y-99017615D01*
X178584291Y-99273515D01*
X178624922Y-99360368D01*
X178625323Y-99369314D01*
X178622597Y-99373599D01*
X178492777Y-99503419D01*
X178484504Y-99506846D01*
X178479547Y-99505744D01*
X178328928Y-99435283D01*
X177983126Y-99273515D01*
X177977085Y-99266905D01*
X177977486Y-99257959D01*
X177978335Y-99256449D01*
X178135485Y-99019585D01*
X178138763Y-99016307D01*
X178375627Y-98859156D01*
X178384415Y-98857438D01*
X178391844Y-98862438D01*
G37*
%TD.AperFunction*%
%TD*%
%TA.AperFunction,Conductor*%
%TO.N,/AS5048_Der/+3V0_s*%
G36*
X179512289Y-98948291D02*
G01*
X179520979Y-98950049D01*
X179789726Y-99004419D01*
X179797155Y-99009419D01*
X179798874Y-99018207D01*
X179798754Y-99018734D01*
X179669721Y-99533095D01*
X179664384Y-99540286D01*
X179658373Y-99541948D01*
X179474792Y-99541948D01*
X179466519Y-99538521D01*
X179464288Y-99535401D01*
X179262555Y-99124159D01*
X179261988Y-99115222D01*
X179266529Y-99109299D01*
X179503443Y-98950048D01*
X179512220Y-98948278D01*
X179512289Y-98948291D01*
G37*
%TD.AperFunction*%
%TD*%
M02*
