%TF.GenerationSoftware,KiCad,Pcbnew,9.0.6*%
%TF.CreationDate,2026-04-22T14:32:10-05:00*%
%TF.ProjectId,Encoder_Izq,456e636f-6465-4725-9f49-7a712e6b6963,rev?*%
%TF.SameCoordinates,Original*%
%TF.FileFunction,Copper,L2,Bot*%
%TF.FilePolarity,Positive*%
%FSLAX46Y46*%
G04 Gerber Fmt 4.6, Leading zero omitted, Abs format (unit mm)*
G04 Created by KiCad (PCBNEW 9.0.6) date 2026-04-22 14:32:10*
%MOMM*%
%LPD*%
G01*
G04 APERTURE LIST*
G04 Aperture macros list*
%AMRoundRect*
0 Rectangle with rounded corners*
0 $1 Rounding radius*
0 $2 $3 $4 $5 $6 $7 $8 $9 X,Y pos of 4 corners*
0 Add a 4 corners polygon primitive as box body*
4,1,4,$2,$3,$4,$5,$6,$7,$8,$9,$2,$3,0*
0 Add four circle primitives for the rounded corners*
1,1,$1+$1,$2,$3*
1,1,$1+$1,$4,$5*
1,1,$1+$1,$6,$7*
1,1,$1+$1,$8,$9*
0 Add four rect primitives between the rounded corners*
20,1,$1+$1,$2,$3,$4,$5,0*
20,1,$1+$1,$4,$5,$6,$7,0*
20,1,$1+$1,$6,$7,$8,$9,0*
20,1,$1+$1,$8,$9,$2,$3,0*%
G04 Aperture macros list end*
%TA.AperFunction,ComponentPad*%
%ADD10RoundRect,0.275000X0.275000X-0.325000X0.275000X0.325000X-0.275000X0.325000X-0.275000X-0.325000X0*%
%TD*%
%TA.AperFunction,ComponentPad*%
%ADD11RoundRect,0.275000X0.275000X-0.413500X0.275000X0.413500X-0.275000X0.413500X-0.275000X-0.413500X0*%
%TD*%
%TA.AperFunction,SMDPad,CuDef*%
%ADD12RoundRect,0.140000X0.140000X0.170000X-0.140000X0.170000X-0.140000X-0.170000X0.140000X-0.170000X0*%
%TD*%
%TA.AperFunction,ViaPad*%
%ADD13C,0.600000*%
%TD*%
%TA.AperFunction,Conductor*%
%ADD14C,0.200000*%
%TD*%
G04 APERTURE END LIST*
D10*
%TO.P,J10,1,Pin_1*%
%TO.N,/AS5048_Izq/+3V0_s*%
X111122500Y-107138322D03*
D11*
X111122500Y-107824822D03*
D10*
%TO.P,J10,2,Pin_2*%
%TO.N,/AS5048_Izq/SDA_s*%
X112572500Y-107138322D03*
D11*
X112572500Y-107824822D03*
D10*
%TO.P,J10,3,Pin_3*%
%TO.N,/AS5048_Izq/SCL_s*%
X114022500Y-107138322D03*
D11*
X114022500Y-107824822D03*
D10*
%TO.P,J10,4,Pin_4*%
%TO.N,/AS5048_Izq/GND_s*%
X115472500Y-107138322D03*
D11*
X115472500Y-107824822D03*
%TD*%
D12*
%TO.P,C43,1*%
%TO.N,/AS5048_Izq/+3V0_s*%
X113767500Y-100508322D03*
%TO.P,C43,2*%
%TO.N,/AS5048_Izq/GND_s*%
X112807500Y-100508322D03*
%TD*%
D13*
%TO.N,/AS5048_Izq/GND_s*%
X112607500Y-101928322D03*
X115677500Y-104788322D03*
X112317500Y-98988322D03*
%TO.N,/AS5048_Izq/+3V0_s*%
X113627500Y-98968322D03*
X114440991Y-105274554D03*
X113157500Y-105288322D03*
%TD*%
D14*
%TO.N,/AS5048_Izq/GND_s*%
X112807500Y-100508322D02*
X112807500Y-99478322D01*
X112807500Y-101728322D02*
X112607500Y-101928322D01*
X112807500Y-100508322D02*
X112807500Y-101728322D01*
X112807500Y-99478322D02*
X112317500Y-98988322D01*
%TO.N,/AS5048_Izq/+3V0_s*%
X114440991Y-105181813D02*
X113767500Y-104508322D01*
X113767500Y-99108322D02*
X113627500Y-98968322D01*
X113767500Y-104508322D02*
X113767500Y-100508322D01*
X114440991Y-105274554D02*
X114440991Y-105181813D01*
X113767500Y-100508322D02*
X113767500Y-99108322D01*
%TD*%
%TA.AperFunction,Conductor*%
%TO.N,/AS5048_Izq/GND_s*%
G36*
X116045778Y-102538059D02*
G01*
X116081996Y-102587374D01*
X116087000Y-102618450D01*
X116087000Y-106183407D01*
X116068093Y-106241598D01*
X116018593Y-106277562D01*
X115957407Y-106277562D01*
X115950116Y-106274872D01*
X115897606Y-106253122D01*
X115897601Y-106253121D01*
X115785190Y-106238322D01*
X115672501Y-106238322D01*
X115672500Y-106238323D01*
X115672500Y-107039322D01*
X115661717Y-107072508D01*
X115642052Y-107025031D01*
X115585791Y-106968770D01*
X115512282Y-106938322D01*
X115432718Y-106938322D01*
X115359209Y-106968770D01*
X115302948Y-107025031D01*
X115281810Y-107076061D01*
X115277345Y-107069915D01*
X115272500Y-107039322D01*
X115272500Y-106238323D01*
X115251996Y-106217819D01*
X115224219Y-106163302D01*
X115223000Y-106147815D01*
X115223000Y-105062590D01*
X115217796Y-105014432D01*
X115217795Y-105014419D01*
X115206478Y-104962664D01*
X115201792Y-104944781D01*
X115156285Y-104862796D01*
X115110416Y-104810091D01*
X115085987Y-104785998D01*
X115081513Y-104783595D01*
X115003389Y-104741632D01*
X115003379Y-104741628D01*
X114936302Y-104722089D01*
X114936304Y-104722089D01*
X114910288Y-104718406D01*
X114872747Y-104713091D01*
X114872743Y-104713091D01*
X114558660Y-104713770D01*
X114506831Y-104699250D01*
X114272306Y-104555960D01*
X114253917Y-104541484D01*
X114116996Y-104404563D01*
X114089219Y-104350046D01*
X114088000Y-104334559D01*
X114088000Y-102627710D01*
X114106907Y-102569519D01*
X114156407Y-102533555D01*
X114186482Y-102528712D01*
X115987495Y-102519452D01*
X116045778Y-102538059D01*
G37*
%TD.AperFunction*%
%TD*%
%TA.AperFunction,Conductor*%
%TO.N,/AS5048_Izq/+3V0_s*%
G36*
X114940314Y-104958130D02*
G01*
X114986183Y-105010835D01*
X114997500Y-105062590D01*
X114997500Y-106282013D01*
X114996604Y-106285062D01*
X114997348Y-106288152D01*
X114986823Y-106318371D01*
X114977815Y-106349052D01*
X114975137Y-106351927D01*
X114974369Y-106354135D01*
X114949964Y-106379631D01*
X114948874Y-106380484D01*
X114843526Y-106459348D01*
X114836910Y-106468184D01*
X114823964Y-106478326D01*
X114759049Y-106504169D01*
X114690468Y-106490814D01*
X114659117Y-106464246D01*
X114657745Y-106465619D01*
X114651476Y-106459350D01*
X114651474Y-106459349D01*
X114651474Y-106459348D01*
X114537410Y-106373960D01*
X114537409Y-106373959D01*
X114537407Y-106373958D01*
X114403912Y-106324168D01*
X114403910Y-106324167D01*
X114403909Y-106324167D01*
X114403908Y-106324166D01*
X114403905Y-106324166D01*
X114344898Y-106317822D01*
X113700112Y-106317822D01*
X113700103Y-106317823D01*
X113641090Y-106324166D01*
X113507592Y-106373958D01*
X113507590Y-106373959D01*
X113393523Y-106459350D01*
X113387255Y-106465619D01*
X113385266Y-106463630D01*
X113340823Y-106496894D01*
X113271131Y-106501872D01*
X113209811Y-106468381D01*
X113205291Y-106463165D01*
X113201476Y-106459350D01*
X113201474Y-106459349D01*
X113201474Y-106459348D01*
X113087410Y-106373960D01*
X113087409Y-106373959D01*
X113087407Y-106373958D01*
X112953912Y-106324168D01*
X112953910Y-106324167D01*
X112953909Y-106324167D01*
X112953908Y-106324166D01*
X112953905Y-106324166D01*
X112894898Y-106317822D01*
X112250112Y-106317822D01*
X112250103Y-106317823D01*
X112191090Y-106324166D01*
X112057592Y-106373958D01*
X112057590Y-106373959D01*
X111943526Y-106459348D01*
X111858137Y-106573412D01*
X111858136Y-106573414D01*
X111808346Y-106706909D01*
X111808344Y-106706916D01*
X111802000Y-106765914D01*
X111802000Y-108285709D01*
X111802001Y-108285712D01*
X111804672Y-108310566D01*
X111792267Y-108379324D01*
X111744656Y-108430461D01*
X111681383Y-108447819D01*
X110931283Y-108447819D01*
X110914427Y-108447818D01*
X110914419Y-108447813D01*
X110896288Y-108447817D01*
X110895581Y-108447817D01*
X110895570Y-108447814D01*
X110879426Y-108446759D01*
X110800276Y-108436354D01*
X110769000Y-108427979D01*
X110702810Y-108400572D01*
X110674768Y-108384385D01*
X110617931Y-108340778D01*
X110595036Y-108317886D01*
X110551421Y-108261046D01*
X110535241Y-108233019D01*
X110507824Y-108166816D01*
X110499452Y-108135552D01*
X110489073Y-108056637D01*
X110488014Y-108040451D01*
X110488017Y-108021406D01*
X110488016Y-108021404D01*
X110488018Y-108005258D01*
X110488013Y-108005212D01*
X110488013Y-105071814D01*
X110507698Y-105004775D01*
X110560502Y-104959020D01*
X110611741Y-104947814D01*
X114873235Y-104938590D01*
X114940314Y-104958130D01*
G37*
%TD.AperFunction*%
%TD*%
%TA.AperFunction,Conductor*%
%TO.N,/AS5048_Izq/GND_s*%
G36*
X112903955Y-101415637D02*
G01*
X112907382Y-101423910D01*
X112907381Y-101424027D01*
X112901877Y-101972784D01*
X112898368Y-101981023D01*
X112890061Y-101984366D01*
X112887933Y-101984150D01*
X112609818Y-101929775D01*
X112605536Y-101928002D01*
X112369857Y-101769581D01*
X112364903Y-101762122D01*
X112366674Y-101753344D01*
X112368106Y-101751603D01*
X112704073Y-101415637D01*
X112712346Y-101412210D01*
X112895682Y-101412210D01*
X112903955Y-101415637D01*
G37*
%TD.AperFunction*%
%TD*%
%TA.AperFunction,Conductor*%
%TO.N,/AS5048_Izq/GND_s*%
G36*
X112571844Y-98832438D02*
G01*
X112572693Y-98833948D01*
X112644580Y-98987615D01*
X112764291Y-99243515D01*
X112804922Y-99330368D01*
X112805323Y-99339314D01*
X112802597Y-99343599D01*
X112672777Y-99473419D01*
X112664504Y-99476846D01*
X112659547Y-99475744D01*
X112508928Y-99405283D01*
X112163126Y-99243515D01*
X112157085Y-99236905D01*
X112157486Y-99227959D01*
X112158335Y-99226449D01*
X112315485Y-98989585D01*
X112318763Y-98986307D01*
X112555627Y-98829156D01*
X112564415Y-98827438D01*
X112571844Y-98832438D01*
G37*
%TD.AperFunction*%
%TD*%
%TA.AperFunction,Conductor*%
%TO.N,/AS5048_Izq/+3V0_s*%
G36*
X114147809Y-104744153D02*
G01*
X114467487Y-104939469D01*
X114607662Y-105025113D01*
X114441698Y-105275261D01*
X114146755Y-105333081D01*
X114000768Y-104887603D01*
X114001448Y-104878675D01*
X114003610Y-104875690D01*
X114133437Y-104745863D01*
X114141709Y-104742437D01*
X114147809Y-104744153D01*
G37*
%TD.AperFunction*%
%TD*%
%TA.AperFunction,Conductor*%
%TO.N,/AS5048_Izq/+3V0_s*%
G36*
X113632289Y-98968291D02*
G01*
X113911277Y-99024733D01*
X113918706Y-99029733D01*
X113920589Y-99037458D01*
X113868628Y-99518368D01*
X113864333Y-99526225D01*
X113856996Y-99528811D01*
X113673421Y-99528811D01*
X113665148Y-99525384D01*
X113663993Y-99524040D01*
X113659824Y-99518368D01*
X113385283Y-99144823D01*
X113383146Y-99136128D01*
X113387783Y-99128467D01*
X113388136Y-99128219D01*
X113623443Y-98970048D01*
X113632220Y-98968278D01*
X113632289Y-98968291D01*
G37*
%TD.AperFunction*%
%TD*%
M02*
