%TF.GenerationSoftware,KiCad,Pcbnew,9.0.6*%
%TF.CreationDate,2026-04-22T14:33:14-05:00*%
%TF.ProjectId,IR_sensor,49525f73-656e-4736-9f72-2e6b69636164,rev?*%
%TF.SameCoordinates,Original*%
%TF.FileFunction,Copper,L1,Top*%
%TF.FilePolarity,Positive*%
%FSLAX46Y46*%
G04 Gerber Fmt 4.6, Leading zero omitted, Abs format (unit mm)*
G04 Created by KiCad (PCBNEW 9.0.6) date 2026-04-22 14:33:14*
%MOMM*%
%LPD*%
G01*
G04 APERTURE LIST*
G04 Aperture macros list*
%AMRoundRect*
0 Rectangle with rounded corners*
0 $1 Rounding radius*
0 $2 $3 $4 $5 $6 $7 $8 $9 X,Y pos of 4 corners*
0 Add a 4 corners polygon primitive as box body*
4,1,4,$2,$3,$4,$5,$6,$7,$8,$9,$2,$3,0*
0 Add four circle primitives for the rounded corners*
1,1,$1+$1,$2,$3*
1,1,$1+$1,$4,$5*
1,1,$1+$1,$6,$7*
1,1,$1+$1,$8,$9*
0 Add four rect primitives between the rounded corners*
20,1,$1+$1,$2,$3,$4,$5,0*
20,1,$1+$1,$4,$5,$6,$7,0*
20,1,$1+$1,$6,$7,$8,$9,0*
20,1,$1+$1,$8,$9,$2,$3,0*%
G04 Aperture macros list end*
%TA.AperFunction,ComponentPad*%
%ADD10R,1.800000X1.800000*%
%TD*%
%TA.AperFunction,ComponentPad*%
%ADD11C,1.800000*%
%TD*%
%TA.AperFunction,ComponentPad*%
%ADD12C,0.500000*%
%TD*%
%TA.AperFunction,ComponentPad*%
%ADD13RoundRect,0.233333X0.466667X-1.266667X0.466667X1.266667X-0.466667X1.266667X-0.466667X-1.266667X0*%
%TD*%
%TA.AperFunction,ComponentPad*%
%ADD14RoundRect,0.233333X0.466667X-1.066667X0.466667X1.066667X-0.466667X1.066667X-0.466667X-1.066667X0*%
%TD*%
%TA.AperFunction,ViaPad*%
%ADD15C,0.600000*%
%TD*%
%TA.AperFunction,Conductor*%
%ADD16C,0.400000*%
%TD*%
%TA.AperFunction,Conductor*%
%ADD17C,0.300000*%
%TD*%
G04 APERTURE END LIST*
D10*
%TO.P,D18,1,K*%
%TO.N,Net-(D18-K)*%
X104362500Y-67927283D03*
D11*
%TO.P,D18,2,A*%
%TO.N,Net-(D18-A)*%
X106902500Y-67927283D03*
%TD*%
D10*
%TO.P,Q6,1,C*%
%TO.N,/IR_sensor/+3V0_1*%
X104362500Y-74477283D03*
D11*
%TO.P,Q6,2,E*%
%TO.N,/IR_sensor/IR_REC_1*%
X106902500Y-74477283D03*
%TD*%
D12*
%TO.P,J14,1,Pin_1*%
%TO.N,/IR_sensor/+3V0_1*%
X102504835Y-78078322D03*
X102504835Y-79878322D03*
D13*
X102840835Y-78978322D03*
D12*
X103204835Y-78078322D03*
X103204835Y-79878322D03*
%TO.P,J14,2,Pin_2*%
%TO.N,/IR_sensor/IR_POW_1*%
X104350167Y-78278322D03*
X104350167Y-80078322D03*
D14*
X104703835Y-79178322D03*
D12*
X105050167Y-78278322D03*
X105050167Y-80078322D03*
%TO.P,J14,3,Pin_3*%
%TO.N,/IR_sensor/IR_REC_1*%
X106241834Y-78278322D03*
X106241834Y-80078322D03*
D14*
X106566835Y-79178322D03*
D12*
X106941834Y-78278322D03*
X106941834Y-80078322D03*
%TO.P,J14,4,Pin_4*%
%TO.N,/IR_sensor/GND_1*%
X108079835Y-78078322D03*
X108079835Y-79878322D03*
D13*
X108429835Y-78978322D03*
D12*
X108779835Y-78078322D03*
X108779835Y-79878322D03*
%TD*%
D15*
%TO.N,Net-(D18-K)*%
X103787500Y-71198322D03*
%TO.N,/IR_sensor/GND_1*%
X106213500Y-75778322D03*
X107870000Y-75778322D03*
%TO.N,/IR_sensor/+3V0_1*%
X108287500Y-72338322D03*
%TO.N,/IR_sensor/IR_POW_1*%
X105617500Y-76488322D03*
X105822609Y-73667133D03*
%TD*%
D16*
%TO.N,Net-(D18-K)*%
X103787500Y-71198322D02*
X103327500Y-71198322D01*
X102907500Y-68408322D02*
X103388539Y-67927283D01*
X102907500Y-70778322D02*
X102907500Y-68408322D01*
X103327500Y-71198322D02*
X102907500Y-70778322D01*
X103388539Y-67927283D02*
X104362500Y-67927283D01*
D17*
%TO.N,/IR_sensor/GND_1*%
X106213500Y-75778322D02*
X107870000Y-75778322D01*
D16*
%TO.N,/IR_sensor/+3V0_1*%
X105497500Y-72918322D02*
X107707500Y-72918322D01*
X104362500Y-73373322D02*
X104817500Y-72918322D01*
X104362500Y-75583322D02*
X104362500Y-74477283D01*
X102840835Y-78978322D02*
X102840835Y-77104987D01*
X107707500Y-72918322D02*
X108287500Y-72338322D01*
X104362500Y-74477283D02*
X104362500Y-73373322D01*
X102840835Y-77104987D02*
X104362500Y-75583322D01*
X104817500Y-72918322D02*
X105497500Y-72918322D01*
D17*
%TO.N,/IR_sensor/IR_POW_1*%
X105613500Y-75191668D02*
X105613500Y-76484322D01*
X105613500Y-76484322D02*
X105617500Y-76488322D01*
X105613500Y-73876242D02*
X105613500Y-75191668D01*
X105822609Y-73667133D02*
X105613500Y-73876242D01*
%TD*%
%TA.AperFunction,Conductor*%
%TO.N,/IR_sensor/IR_POW_1*%
G36*
X105725659Y-75897513D02*
G01*
X105728686Y-75902756D01*
X105736364Y-75931413D01*
X105747107Y-75971506D01*
X105747108Y-75971510D01*
X105812997Y-76085632D01*
X105813001Y-76085637D01*
X105815663Y-76088299D01*
X105818666Y-76093452D01*
X105908388Y-76417696D01*
X105907292Y-76426583D01*
X105900232Y-76432092D01*
X105899432Y-76432284D01*
X105619820Y-76488852D01*
X105615180Y-76488852D01*
X105335398Y-76432249D01*
X105327969Y-76427249D01*
X105326250Y-76418461D01*
X105326399Y-76417818D01*
X105461213Y-75902823D01*
X105466624Y-75895687D01*
X105472532Y-75894086D01*
X105717386Y-75894086D01*
X105725659Y-75897513D01*
G37*
%TD.AperFunction*%
%TD*%
%TA.AperFunction,Conductor*%
%TO.N,/IR_sensor/GND_1*%
G36*
X107808315Y-75488485D02*
G01*
X107813775Y-75495583D01*
X107813945Y-75496305D01*
X107870530Y-75776002D01*
X107870530Y-75780642D01*
X107813945Y-76060338D01*
X107808945Y-76067767D01*
X107800157Y-76069486D01*
X107799435Y-76069316D01*
X107284422Y-75930653D01*
X107277324Y-75925193D01*
X107275764Y-75919355D01*
X107275764Y-75637288D01*
X107279191Y-75629015D01*
X107284419Y-75625991D01*
X107799435Y-75487327D01*
X107808315Y-75488485D01*
G37*
%TD.AperFunction*%
%TD*%
%TA.AperFunction,Conductor*%
%TO.N,/IR_sensor/+3V0_1*%
G36*
X108047562Y-72177956D02*
G01*
X108286234Y-72336306D01*
X108289515Y-72339587D01*
X108447865Y-72578259D01*
X108449584Y-72587047D01*
X108444831Y-72594308D01*
X108016777Y-72894294D01*
X108008035Y-72896236D01*
X108001789Y-72892986D01*
X107732835Y-72624032D01*
X107729408Y-72615759D01*
X107731525Y-72609047D01*
X108031515Y-72180988D01*
X108039067Y-72176182D01*
X108047562Y-72177956D01*
G37*
%TD.AperFunction*%
%TD*%
%TA.AperFunction,Conductor*%
%TO.N,Net-(D18-K)*%
G36*
X103726555Y-70907951D02*
G01*
X103731193Y-70915144D01*
X103787743Y-71196719D01*
X103787741Y-71201337D01*
X103731722Y-71478933D01*
X103726726Y-71486365D01*
X103717939Y-71488088D01*
X103716017Y-71487525D01*
X103107881Y-71251318D01*
X103101410Y-71245128D01*
X103101211Y-71236176D01*
X103103842Y-71232141D01*
X103371337Y-70964646D01*
X103377722Y-70961375D01*
X103717841Y-70905901D01*
X103726555Y-70907951D01*
G37*
%TD.AperFunction*%
%TD*%
%TA.AperFunction,Conductor*%
%TO.N,/IR_sensor/+3V0_1*%
G36*
X102938675Y-76740927D02*
G01*
X102939478Y-76741659D01*
X103211933Y-77014114D01*
X103214081Y-77017067D01*
X103457131Y-77493185D01*
X103520377Y-77617078D01*
X103521086Y-77626005D01*
X103520407Y-77627659D01*
X102852309Y-78954830D01*
X102845528Y-78960679D01*
X102836597Y-78960020D01*
X102830864Y-78953571D01*
X102588705Y-78288100D01*
X102588000Y-78284099D01*
X102588000Y-77149555D01*
X102590694Y-77142086D01*
X102922202Y-76742460D01*
X102930120Y-76738282D01*
X102938675Y-76740927D01*
G37*
%TD.AperFunction*%
%TD*%
%TA.AperFunction,Conductor*%
%TO.N,/IR_sensor/GND_1*%
G36*
X106284064Y-75487327D02*
G01*
X106317410Y-75496305D01*
X106799079Y-75625991D01*
X106806176Y-75631450D01*
X106807736Y-75637288D01*
X106807736Y-75919355D01*
X106804309Y-75927628D01*
X106799078Y-75930653D01*
X106284064Y-76069316D01*
X106275184Y-76068158D01*
X106269724Y-76061060D01*
X106269559Y-76060361D01*
X106212969Y-75780640D01*
X106212969Y-75776002D01*
X106269555Y-75496302D01*
X106274554Y-75488876D01*
X106283342Y-75487157D01*
X106284064Y-75487327D01*
G37*
%TD.AperFunction*%
%TD*%
M02*
