%TF.GenerationSoftware,KiCad,Pcbnew,9.0.6*%
%TF.CreationDate,2026-04-22T14:33:14-05:00*%
%TF.ProjectId,IR_sensor,49525f73-656e-4736-9f72-2e6b69636164,rev?*%
%TF.SameCoordinates,Original*%
%TF.FileFunction,Legend,Bot*%
%TF.FilePolarity,Positive*%
%FSLAX46Y46*%
G04 Gerber Fmt 4.6, Leading zero omitted, Abs format (unit mm)*
G04 Created by KiCad (PCBNEW 9.0.6) date 2026-04-22 14:33:14*
%MOMM*%
%LPD*%
G01*
G04 APERTURE LIST*
%ADD10C,0.120000*%
G04 APERTURE END LIST*
D10*
%TO.C,R39*%
X104337500Y-76545943D02*
X104337500Y-76210701D01*
X105097500Y-76545943D02*
X105097500Y-76210701D01*
%TO.C,C55*%
X107833335Y-70838322D02*
X107601665Y-70838322D01*
X107833335Y-71558322D02*
X107601665Y-71558322D01*
%TO.C,C57*%
X102527500Y-76484157D02*
X102527500Y-76252487D01*
X103247500Y-76484157D02*
X103247500Y-76252487D01*
%TO.C,Q4*%
X103467500Y-69648322D02*
X103467500Y-69698322D01*
X103467500Y-70818322D02*
X103467500Y-71598322D01*
X103467500Y-72718322D02*
X103467500Y-72768322D01*
X103467500Y-72768322D02*
X104987500Y-72768322D01*
X104987500Y-69648322D02*
X103467500Y-69648322D01*
X104987500Y-70648322D02*
X104987500Y-69648322D01*
X104987500Y-72768322D02*
X104987500Y-71768322D01*
X102927500Y-71588322D02*
X102687500Y-71258322D01*
X103167500Y-71258322D01*
X102927500Y-71588322D01*
G36*
X102927500Y-71588322D02*
G01*
X102687500Y-71258322D01*
X103167500Y-71258322D01*
X102927500Y-71588322D01*
G37*
%TO.C,R43*%
X107649879Y-76288322D02*
X107985121Y-76288322D01*
X107649879Y-77048322D02*
X107985121Y-77048322D01*
%TO.C,R41*%
X105490436Y-65193322D02*
X105944564Y-65193322D01*
X105490436Y-66663322D02*
X105944564Y-66663322D01*
%TD*%
M02*
