M48
; DRILL file {KiCad 9.0.6} date 2026-04-22T14:33:18-0500
; FORMAT={-:-/ absolute / metric / decimal}
; #@! TF.CreationDate,2026-04-22T14:33:18-05:00
; #@! TF.GenerationSoftware,Kicad,Pcbnew,9.0.6
; #@! TF.FileFunction,Plated,1,2,PTH
FMAT,2
METRIC
; #@! TA.AperFunction,Plated,PTH,ViaDrill
T1C0.350
; #@! TA.AperFunction,Plated,PTH,ComponentDrill
T2C0.400
; #@! TA.AperFunction,Plated,PTH,ComponentDrill
T3C0.500
; #@! TA.AperFunction,Plated,PTH,ComponentDrill
T4C0.900
%
G90
G05
T1
X103.787Y-71.198
X105.617Y-76.488
X105.823Y-73.667
X106.213Y-75.778
X107.87Y-75.778
X108.287Y-72.338
T2
X102.505Y-78.078
X102.505Y-79.878
X103.205Y-78.078
X103.205Y-79.878
X104.35Y-78.278
X104.35Y-80.078
X105.05Y-78.278
X105.05Y-80.078
X106.242Y-78.278
X106.242Y-80.078
X106.942Y-78.278
X106.942Y-80.078
X108.08Y-78.078
X108.08Y-79.878
X108.78Y-78.078
X108.78Y-79.878
T3
X102.841Y-78.978
X104.707Y-79.178
X106.57Y-79.178
X108.43Y-78.978
T4
X104.362Y-67.927
X104.362Y-74.477
X106.902Y-67.927
X106.902Y-74.477
M30
