%TF.GenerationSoftware,KiCad,Pcbnew,9.0.6*%
%TF.CreationDate,2026-04-22T14:32:10-05:00*%
%TF.ProjectId,Encoder_Izq,456e636f-6465-4725-9f49-7a712e6b6963,rev?*%
%TF.SameCoordinates,Original*%
%TF.FileFunction,Copper,L1,Top*%
%TF.FilePolarity,Positive*%
%FSLAX46Y46*%
G04 Gerber Fmt 4.6, Leading zero omitted, Abs format (unit mm)*
G04 Created by KiCad (PCBNEW 9.0.6) date 2026-04-22 14:32:10*
%MOMM*%
%LPD*%
G01*
G04 APERTURE LIST*
G04 Aperture macros list*
%AMRoundRect*
0 Rectangle with rounded corners*
0 $1 Rounding radius*
0 $2 $3 $4 $5 $6 $7 $8 $9 X,Y pos of 4 corners*
0 Add a 4 corners polygon primitive as box body*
4,1,4,$2,$3,$4,$5,$6,$7,$8,$9,$2,$3,0*
0 Add four circle primitives for the rounded corners*
1,1,$1+$1,$2,$3*
1,1,$1+$1,$4,$5*
1,1,$1+$1,$6,$7*
1,1,$1+$1,$8,$9*
0 Add four rect primitives between the rounded corners*
20,1,$1+$1,$2,$3,$4,$5,0*
20,1,$1+$1,$4,$5,$6,$7,0*
20,1,$1+$1,$6,$7,$8,$9,0*
20,1,$1+$1,$8,$9,$2,$3,0*%
G04 Aperture macros list end*
%TA.AperFunction,SMDPad,CuDef*%
%ADD10RoundRect,0.135000X-0.135000X-0.185000X0.135000X-0.185000X0.135000X0.185000X-0.135000X0.185000X0*%
%TD*%
%TA.AperFunction,ComponentPad*%
%ADD11RoundRect,0.275000X0.275000X-0.325000X0.275000X0.325000X-0.275000X0.325000X-0.275000X-0.325000X0*%
%TD*%
%TA.AperFunction,ComponentPad*%
%ADD12RoundRect,0.275000X0.275000X-0.413500X0.275000X0.413500X-0.275000X0.413500X-0.275000X-0.413500X0*%
%TD*%
%TA.AperFunction,SMDPad,CuDef*%
%ADD13RoundRect,0.140000X-0.140000X-0.170000X0.140000X-0.170000X0.140000X0.170000X-0.140000X0.170000X0*%
%TD*%
%TA.AperFunction,SMDPad,CuDef*%
%ADD14R,0.410000X1.470000*%
%TD*%
%TA.AperFunction,ViaPad*%
%ADD15C,0.600000*%
%TD*%
%TA.AperFunction,Conductor*%
%ADD16C,0.200000*%
%TD*%
G04 APERTURE END LIST*
D10*
%TO.P,R32,1*%
%TO.N,/AS5048_Izq/+3V0_s*%
X110857500Y-105868322D03*
%TO.P,R32,2*%
%TO.N,/AS5048_Izq/SDA_s*%
X111877500Y-105868322D03*
%TD*%
%TO.P,R31,1*%
%TO.N,/AS5048_Izq/+3V0_s*%
X112797500Y-105868322D03*
%TO.P,R31,2*%
%TO.N,/AS5048_Izq/SCL_s*%
X113817500Y-105868322D03*
%TD*%
D11*
%TO.P,J10,1,Pin_1*%
%TO.N,/AS5048_Izq/+3V0_s*%
X111122500Y-107138322D03*
D12*
X111122500Y-107824822D03*
D11*
%TO.P,J10,2,Pin_2*%
%TO.N,/AS5048_Izq/SDA_s*%
X112572500Y-107138322D03*
D12*
X112572500Y-107824822D03*
D11*
%TO.P,J10,3,Pin_3*%
%TO.N,/AS5048_Izq/SCL_s*%
X114022500Y-107138322D03*
D12*
X114022500Y-107824822D03*
D11*
%TO.P,J10,4,Pin_4*%
%TO.N,/AS5048_Izq/GND_s*%
X115472500Y-107138322D03*
D12*
X115472500Y-107824822D03*
%TD*%
D13*
%TO.P,C44,1*%
%TO.N,/AS5048_Izq/+3V0_s*%
X114747500Y-105868322D03*
%TO.P,C44,2*%
%TO.N,/AS5048_Izq/GND_s*%
X115707500Y-105868322D03*
%TD*%
D14*
%TO.P,U4,1,SDA*%
%TO.N,/AS5048_Izq/SDA_s*%
X111337500Y-103378322D03*
%TO.P,U4,2,SCL*%
%TO.N,/AS5048_Izq/SCL_s*%
X111987500Y-103378322D03*
%TO.P,U4,3,A2*%
%TO.N,/AS5048_Izq/GND_s*%
X112637500Y-103378322D03*
%TO.P,U4,4,A1*%
X113287500Y-103378322D03*
%TO.P,U4,5,TEST_5*%
X113937500Y-103378322D03*
%TO.P,U4,6,TEST_6*%
X114587500Y-103378322D03*
%TO.P,U4,7,TEST_7*%
%TO.N,unconnected-(U4-TEST_7-Pad7)*%
X115237500Y-103378322D03*
%TO.P,U4,8,TEST_8*%
%TO.N,unconnected-(U4-TEST_8-Pad8)*%
X115237500Y-97638322D03*
%TO.P,U4,9,TEST_9*%
%TO.N,unconnected-(U4-TEST_9-Pad9)*%
X114587500Y-97638322D03*
%TO.P,U4,10,TEST_10*%
%TO.N,unconnected-(U4-TEST_10-Pad10)*%
X113937500Y-97638322D03*
%TO.P,U4,11,VDD5V*%
%TO.N,/AS5048_Izq/+3V0_s*%
X113287500Y-97638322D03*
%TO.P,U4,12,VDD3V*%
X112637500Y-97638322D03*
%TO.P,U4,13,GND*%
%TO.N,/AS5048_Izq/GND_s*%
X111987500Y-97638322D03*
%TO.P,U4,14,PWM*%
%TO.N,unconnected-(U4-PWM-Pad14)*%
X111337500Y-97638322D03*
%TD*%
D15*
%TO.N,/AS5048_Izq/GND_s*%
X112607500Y-101928322D03*
X115677500Y-104788322D03*
X112317500Y-98988322D03*
%TO.N,/AS5048_Izq/+3V0_s*%
X113627500Y-98968322D03*
X114440991Y-105274554D03*
X113157500Y-105288322D03*
%TD*%
D16*
%TO.N,/AS5048_Izq/GND_s*%
X111987500Y-97638322D02*
X111987500Y-98658322D01*
X112607500Y-103348322D02*
X112637500Y-103378322D01*
X111987500Y-98658322D02*
X112317500Y-98988322D01*
X112607500Y-101928322D02*
X112607500Y-103348322D01*
%TO.N,/AS5048_Izq/+3V0_s*%
X114657500Y-105868322D02*
X114677500Y-105868322D01*
X113287500Y-98628322D02*
X113627500Y-98968322D01*
X113287500Y-97638322D02*
X113287500Y-98628322D01*
X112637500Y-97638322D02*
X113287500Y-97638322D01*
%TO.N,/AS5048_Izq/SCL_s*%
X113817500Y-105058322D02*
X113817500Y-105868322D01*
X112437500Y-104658322D02*
X113417500Y-104658322D01*
X111987500Y-103378322D02*
X111987500Y-104208322D01*
X113417500Y-104658322D02*
X113817500Y-105058322D01*
X113817500Y-106268322D02*
X113817500Y-105868322D01*
X114022500Y-107138322D02*
X114022500Y-106473322D01*
X111987500Y-104208322D02*
X112437500Y-104658322D01*
X114022500Y-106473322D02*
X113817500Y-106268322D01*
%TO.N,/AS5048_Izq/SDA_s*%
X111337500Y-104598322D02*
X111877500Y-105138322D01*
X111877500Y-105868322D02*
X111877500Y-106443322D01*
X111337500Y-103378322D02*
X111337500Y-104598322D01*
X111877500Y-106443322D02*
X112572500Y-107138322D01*
X111877500Y-105138322D02*
X111877500Y-105868322D01*
%TD*%
%TA.AperFunction,Conductor*%
%TO.N,/AS5048_Izq/GND_s*%
G36*
X116045778Y-102538059D02*
G01*
X116081996Y-102587374D01*
X116087000Y-102618450D01*
X116087000Y-105176439D01*
X116068093Y-105234630D01*
X116018593Y-105270594D01*
X115957407Y-105270594D01*
X115955304Y-105269884D01*
X115930227Y-105261109D01*
X115907500Y-105258978D01*
X115907500Y-105769322D01*
X115888593Y-105827513D01*
X115839093Y-105863477D01*
X115808500Y-105868322D01*
X115606500Y-105868322D01*
X115548309Y-105849415D01*
X115512345Y-105799915D01*
X115507500Y-105769322D01*
X115507500Y-105258978D01*
X115484773Y-105261109D01*
X115354697Y-105306625D01*
X115293527Y-105307997D01*
X115243233Y-105273153D01*
X115223025Y-105215401D01*
X115223000Y-105213180D01*
X115223000Y-105062590D01*
X115217796Y-105014433D01*
X115217795Y-105014420D01*
X115211935Y-104987622D01*
X115206478Y-104962662D01*
X115201791Y-104944780D01*
X115201790Y-104944776D01*
X115156282Y-104862791D01*
X115110412Y-104810087D01*
X115085987Y-104785998D01*
X115085984Y-104785996D01*
X115003385Y-104741631D01*
X115003378Y-104741628D01*
X114936302Y-104722089D01*
X114936304Y-104722089D01*
X114915117Y-104719089D01*
X114872747Y-104713091D01*
X114872743Y-104713091D01*
X114261232Y-104714415D01*
X114213552Y-104719620D01*
X114162303Y-104730829D01*
X114144901Y-104735368D01*
X114144899Y-104735369D01*
X114083123Y-104769485D01*
X114023043Y-104781065D01*
X113967632Y-104755119D01*
X113965261Y-104752826D01*
X113751631Y-104539197D01*
X113723853Y-104484680D01*
X113733424Y-104424248D01*
X113737500Y-104418638D01*
X113737500Y-103578323D01*
X114137500Y-103578323D01*
X114137500Y-104413320D01*
X114137501Y-104413321D01*
X114187290Y-104413321D01*
X114187291Y-104413320D01*
X114212374Y-104410412D01*
X114222506Y-104405938D01*
X114283375Y-104399726D01*
X114302491Y-104405937D01*
X114312625Y-104410412D01*
X114312624Y-104410412D01*
X114337704Y-104413321D01*
X114387500Y-104413320D01*
X114387500Y-103578323D01*
X114387499Y-103578322D01*
X114137501Y-103578322D01*
X114137500Y-103578323D01*
X113737500Y-103578323D01*
X113737499Y-103578322D01*
X112736500Y-103578322D01*
X112678309Y-103559415D01*
X112642345Y-103509915D01*
X112637500Y-103479322D01*
X112637500Y-103277322D01*
X112656407Y-103219131D01*
X112705907Y-103183167D01*
X112736500Y-103178322D01*
X114488500Y-103178322D01*
X114546691Y-103197229D01*
X114582655Y-103246729D01*
X114587500Y-103277322D01*
X114587500Y-103378321D01*
X114587501Y-103378322D01*
X114688500Y-103378322D01*
X114746691Y-103397229D01*
X114782655Y-103446729D01*
X114787500Y-103477322D01*
X114787500Y-104413320D01*
X114787501Y-104413321D01*
X114837290Y-104413321D01*
X114837291Y-104413320D01*
X114862374Y-104410412D01*
X114964976Y-104365109D01*
X114967260Y-104362825D01*
X114971369Y-104360730D01*
X114972550Y-104359922D01*
X114972655Y-104360075D01*
X115021774Y-104335042D01*
X115037260Y-104333821D01*
X115464218Y-104333821D01*
X115464222Y-104333820D01*
X115464224Y-104333820D01*
X115485257Y-104329636D01*
X115528535Y-104321029D01*
X115601472Y-104272294D01*
X115650207Y-104199357D01*
X115663000Y-104135041D01*
X115662999Y-102621604D01*
X115662999Y-102621603D01*
X115662999Y-102619612D01*
X115681906Y-102561421D01*
X115731406Y-102525457D01*
X115761481Y-102520614D01*
X115987495Y-102519452D01*
X116045778Y-102538059D01*
G37*
%TD.AperFunction*%
%TD*%
%TA.AperFunction,Conductor*%
%TO.N,/AS5048_Izq/+3V0_s*%
G36*
X111247956Y-104966122D02*
G01*
X111268824Y-104982901D01*
X111516814Y-105230891D01*
X111550299Y-105292214D01*
X111545315Y-105361906D01*
X111516815Y-105406253D01*
X111449176Y-105473892D01*
X111397067Y-105580479D01*
X111397067Y-105580482D01*
X111387000Y-105649580D01*
X111387000Y-106087064D01*
X111394550Y-106138887D01*
X111397067Y-106156164D01*
X111449176Y-106262752D01*
X111520681Y-106334257D01*
X111554166Y-106395580D01*
X111557000Y-106421938D01*
X111557000Y-106485518D01*
X111560237Y-106497598D01*
X111578841Y-106567031D01*
X111621036Y-106640114D01*
X111621038Y-106640116D01*
X111687773Y-106706851D01*
X111687779Y-106706856D01*
X111765681Y-106784758D01*
X111799166Y-106846081D01*
X111802000Y-106872439D01*
X111802000Y-108285709D01*
X111802001Y-108285712D01*
X111804672Y-108310566D01*
X111792267Y-108379324D01*
X111744656Y-108430461D01*
X111681383Y-108447819D01*
X110931283Y-108447819D01*
X110914427Y-108447818D01*
X110914419Y-108447813D01*
X110896288Y-108447817D01*
X110895581Y-108447817D01*
X110895570Y-108447814D01*
X110879426Y-108446759D01*
X110800276Y-108436354D01*
X110769000Y-108427979D01*
X110702810Y-108400572D01*
X110674768Y-108384385D01*
X110617931Y-108340778D01*
X110595036Y-108317886D01*
X110551421Y-108261046D01*
X110535241Y-108233019D01*
X110507824Y-108166816D01*
X110499452Y-108135552D01*
X110489073Y-108056637D01*
X110488014Y-108040451D01*
X110488017Y-108021406D01*
X110488016Y-108021404D01*
X110488018Y-108005258D01*
X110488013Y-108005212D01*
X110488013Y-105071814D01*
X110507698Y-105004775D01*
X110560502Y-104959020D01*
X110611741Y-104947814D01*
X111180877Y-104946582D01*
X111247956Y-104966122D01*
G37*
%TD.AperFunction*%
%TA.AperFunction,Conductor*%
G36*
X112354021Y-104967760D02*
G01*
X112395305Y-104978822D01*
X112479694Y-104978822D01*
X113233383Y-104978822D01*
X113300422Y-104998507D01*
X113321064Y-105015141D01*
X113460681Y-105154758D01*
X113475384Y-105181685D01*
X113491977Y-105207504D01*
X113492868Y-105213704D01*
X113494166Y-105216081D01*
X113497000Y-105242439D01*
X113497000Y-105314706D01*
X113477315Y-105381745D01*
X113460681Y-105402387D01*
X113389178Y-105473890D01*
X113389176Y-105473891D01*
X113337067Y-105580479D01*
X113337067Y-105580482D01*
X113327000Y-105649580D01*
X113327000Y-106087064D01*
X113334550Y-106138887D01*
X113337067Y-106156164D01*
X113389176Y-106262752D01*
X113402280Y-106275856D01*
X113435765Y-106337179D01*
X113430781Y-106406871D01*
X113402464Y-106451034D01*
X113396114Y-106457410D01*
X113393526Y-106459348D01*
X113391530Y-106462013D01*
X113385365Y-106468205D01*
X113362084Y-106480981D01*
X113340823Y-106496894D01*
X113331929Y-106497529D01*
X113324113Y-106501819D01*
X113297618Y-106499980D01*
X113271131Y-106501872D01*
X113263306Y-106497598D01*
X113254411Y-106496981D01*
X113233115Y-106481109D01*
X113209811Y-106468381D01*
X113205291Y-106463165D01*
X113201476Y-106459350D01*
X113201474Y-106459349D01*
X113201474Y-106459348D01*
X113087410Y-106373960D01*
X113087409Y-106373959D01*
X113087407Y-106373958D01*
X112953912Y-106324168D01*
X112953910Y-106324167D01*
X112953909Y-106324167D01*
X112953908Y-106324166D01*
X112953905Y-106324166D01*
X112894907Y-106317822D01*
X112894891Y-106317822D01*
X112476081Y-106317822D01*
X112409042Y-106298137D01*
X112363287Y-106245333D01*
X112353343Y-106176175D01*
X112357607Y-106157216D01*
X112357932Y-106156164D01*
X112357933Y-106156162D01*
X112368000Y-106087064D01*
X112368000Y-105649580D01*
X112357933Y-105580482D01*
X112305824Y-105473893D01*
X112305823Y-105473892D01*
X112305823Y-105473891D01*
X112234319Y-105402387D01*
X112200834Y-105341064D01*
X112198000Y-105314706D01*
X112198000Y-105088000D01*
X112201453Y-105088000D01*
X112204055Y-105071306D01*
X112207951Y-105038724D01*
X112209408Y-105036958D01*
X112209761Y-105034698D01*
X112231540Y-105010153D01*
X112252437Y-104984846D01*
X112254616Y-104984149D01*
X112256136Y-104982437D01*
X112287729Y-104973564D01*
X112318989Y-104963572D01*
X112322019Y-104963934D01*
X112323403Y-104963546D01*
X112354021Y-104967760D01*
G37*
%TD.AperFunction*%
%TA.AperFunction,Conductor*%
G36*
X114940313Y-104958130D02*
G01*
X114986183Y-105010834D01*
X114997500Y-105062590D01*
X114997500Y-106282013D01*
X114977815Y-106349052D01*
X114947812Y-106381279D01*
X114843524Y-106459349D01*
X114837255Y-106465619D01*
X114835266Y-106463630D01*
X114790823Y-106496894D01*
X114721131Y-106501872D01*
X114659811Y-106468381D01*
X114655291Y-106463165D01*
X114651476Y-106459350D01*
X114651474Y-106459349D01*
X114651474Y-106459348D01*
X114537410Y-106373960D01*
X114537409Y-106373959D01*
X114537407Y-106373958D01*
X114403912Y-106324168D01*
X114403906Y-106324166D01*
X114400747Y-106323827D01*
X114398461Y-106322880D01*
X114396365Y-106322385D01*
X114396445Y-106322045D01*
X114336197Y-106297088D01*
X114296350Y-106239695D01*
X114293857Y-106169869D01*
X114295533Y-106163926D01*
X114297929Y-106156169D01*
X114297933Y-106156162D01*
X114308000Y-106087064D01*
X114308000Y-105649580D01*
X114297933Y-105580482D01*
X114245824Y-105473893D01*
X114245823Y-105473892D01*
X114245823Y-105473891D01*
X114174319Y-105402387D01*
X114140834Y-105341064D01*
X114138000Y-105314706D01*
X114138000Y-105063914D01*
X114157685Y-104996875D01*
X114210489Y-104951120D01*
X114261729Y-104939914D01*
X114873235Y-104938590D01*
X114940313Y-104958130D01*
G37*
%TD.AperFunction*%
%TD*%
%TA.AperFunction,Conductor*%
%TO.N,/AS5048_Izq/GND_s*%
G36*
X112090052Y-98532116D02*
G01*
X112472672Y-98732848D01*
X112478406Y-98739726D01*
X112477597Y-98748645D01*
X112476976Y-98749691D01*
X112320204Y-98985257D01*
X112312768Y-98990246D01*
X112312709Y-98990258D01*
X112034032Y-99044743D01*
X112025255Y-99042967D01*
X112020472Y-99036237D01*
X112008376Y-98990258D01*
X111891361Y-98545453D01*
X111892570Y-98536581D01*
X111899699Y-98531162D01*
X111902676Y-98530777D01*
X112084616Y-98530777D01*
X112090052Y-98532116D01*
G37*
%TD.AperFunction*%
%TD*%
%TA.AperFunction,Conductor*%
%TO.N,/AS5048_Izq/GND_s*%
G36*
X112888430Y-101984157D02*
G01*
X112895858Y-101989156D01*
X112897577Y-101997944D01*
X112897108Y-101999612D01*
X112710296Y-102514846D01*
X112704255Y-102521456D01*
X112699297Y-102522558D01*
X112515703Y-102522558D01*
X112507430Y-102519131D01*
X112504704Y-102514846D01*
X112457044Y-102383400D01*
X112317891Y-101999610D01*
X112318292Y-101990666D01*
X112324902Y-101984625D01*
X112326556Y-101984159D01*
X112605182Y-101927791D01*
X112609818Y-101927791D01*
X112888430Y-101984157D01*
G37*
%TD.AperFunction*%
%TD*%
%TA.AperFunction,Conductor*%
%TO.N,/AS5048_Izq/+3V0_s*%
G36*
X113389976Y-98516161D02*
G01*
X113782348Y-98712951D01*
X113788207Y-98719723D01*
X113787561Y-98728654D01*
X113786843Y-98729891D01*
X113630204Y-98965257D01*
X113622768Y-98970246D01*
X113622709Y-98970258D01*
X113343817Y-99024785D01*
X113335040Y-99023009D01*
X113330319Y-99016506D01*
X113191744Y-98529823D01*
X113192775Y-98520928D01*
X113199793Y-98515366D01*
X113202997Y-98514919D01*
X113384731Y-98514919D01*
X113389976Y-98516161D01*
G37*
%TD.AperFunction*%
%TD*%
M02*
